<?xml version="1.0" encoding="UTF-8"?>
<svg width="66px" height="66px" viewBox="0 0 66 66" version="1.1" xmlns="http://www.w3.org/2000/svg" xmlns:xlink="http://www.w3.org/1999/xlink">
    <!-- Generator: Sketch 52.4 (67378) - http://www.bohemiancoding.com/sketch -->
    <title>Group 3</title>
    <desc>Created with Sketch.</desc>
    <defs>
        <linearGradient x1="50%" y1="0%" x2="50%" y2="100%" id="linearGradient-1">
            <stop stop-color="#FF8E34" offset="0%"></stop>
            <stop stop-color="#FF7734" offset="100%"></stop>
        </linearGradient>
    </defs>
    <g id="Page-1" stroke="none" stroke-width="1" fill="none" fill-rule="evenodd">
        <g id="Group-3">
            <rect id="Rectangle" fill="url(#linearGradient-1)" x="0" y="0" width="66" height="66" rx="12"></rect>
            <path d="M26.9628162,42.3087793 C30.320743,45.0475396 30.8860344,47.957369 28.6586901,51.0382676 C25.913099,54.7478562 20.8312823,56.0952991 16.5296679,54.0083974 L16.4936395,53.9909185 C16.4832385,53.9858725 16.4728464,53.980808 16.4624634,53.9757251 C11.6268803,51.6084934 9.62743583,45.7726214 11.9965791,40.94094 L17.3588295,30.005052 L20.3720006,23.8599265 L23.9933264,16.4745175 C25.7530768,12.8856448 29.4234146,10.854376 33.1806578,11.0081433 C36.8101382,10.9943959 40.3033833,13.0088642 42.0066736,16.4825909 L54.0034209,40.9490134 C56.3725642,45.7806948 54.3731197,51.6165668 49.5375366,53.9837985 C49.5271536,53.9888814 49.5167615,53.9939459 49.5063605,53.9989919 L49.4703321,54.0164709 C44.6644704,56.348005 38.8847705,54.3928356 36.4770982,49.6461449 C35.2291808,47.0237703 36.061443,44.5485463 38.9738848,42.2204729 L38.9729216,42.2204729 C41.1633045,40.4525537 42.5641465,37.7469065 42.5641465,34.714339 C42.5641465,29.3880936 38.2428848,25.0703186 32.9123383,25.0703186 C27.5817918,25.0703186 23.2605301,29.3880936 23.2605301,34.714339 C23.2605301,37.7978537 24.7088359,40.5433714 26.9628162,42.3087793 Z M32.921056,39.7686033 C30.1202603,39.7686033 27.8497669,37.4999418 27.8497669,34.7014061 C27.8497669,31.9028704 30.1202603,29.6342089 32.921056,29.6342089 C35.7218516,29.6342089 37.992345,31.9028704 37.992345,34.7014061 C37.992345,37.4999418 35.7218516,39.7686033 32.921056,39.7686033 Z" id="logo" fill="#FFFFFF"></path>
        </g>
    </g>
</svg>