<?xml version="1.0" encoding="UTF-8"?>
<svg width="155px" height="32px" viewBox="0 0 155 32" version="1.1" xmlns="http://www.w3.org/2000/svg" xmlns:xlink="http://www.w3.org/1999/xlink">
    <!-- Generator: Sketch 52.4 (67378) - http://www.bohemiancoding.com/sketch -->
    <title>Logo</title>
    <desc>Created with Sketch.</desc>
    <g id="Page-1" stroke="none" stroke-width="1" fill="none" fill-rule="evenodd">
        <g id="Logo">
            <path d="M49.0665159,13.4886631 C49.0665159,11.8535519 47.971314,10.9394167 45.9048971,10.9394167 C44.8125605,10.9394167 43.6440118,11.2428431 42.4432414,11.8388532 C42.3998092,11.860411 42.3506632,11.8856325 42.2958428,11.9145021 C41.8737923,12.136763 41.350902,11.9758856 41.1279346,11.5551725 L41.1264493,11.5523572 L40.5429095,10.4413742 C40.3218138,10.0204359 40.4843339,9.50053033 40.9061693,9.27929807 C41.0997907,9.17775302 41.2593125,9.09650952 41.3849174,9.03548913 C43.1247161,8.1902738 44.6305199,7.8319874 46.692232,7.8319874 C50.5259146,7.8319874 52.760594,9.77142965 52.788585,13.0834131 L52.8136063,21.7904439 C52.8149737,22.2662565 52.4291337,22.6530837 51.9518087,22.6544467 L51.9493329,22.6544503 L49.9579424,22.6544503 C49.4806154,22.6544503 49.0936654,22.2687264 49.0936654,21.7929118 L49.0936654,21.1112231 C48.0608249,22.2340824 46.4886874,22.8164093 44.5202737,22.8164093 C41.4081768,22.8164093 39.3198529,20.9164743 39.3198529,18.212467 C39.3198529,15.4347853 41.400737,13.7706674 44.9546653,13.7434905 L49.0665159,13.7434905 L49.0665159,13.4886631 Z M45.5248044,16.3380497 C43.680379,16.3380497 42.9061751,16.8299928 42.9061751,17.9965217 C42.9061751,19.1451623 43.8345957,19.8709389 45.3619075,19.8709389 C47.3203096,19.8709389 48.8848259,18.8443033 49.0665159,17.5106447 L49.0665159,16.3380497 L45.5248044,16.3380497 Z M63.0522028,7.85898056 C67.2263174,7.85898056 70.0444892,10.889818 70.0444892,15.3781847 C70.0444892,19.8142863 67.2810975,22.7894161 63.1065018,22.7894161 C61.0456395,22.7894161 59.3933791,22.0172641 58.2887647,20.5688211 L58.2887647,27.0295858 C58.2887647,27.5054004 57.9018147,27.8911243 57.4244877,27.8911243 L55.3766731,27.8911243 C54.8993461,27.8911243 54.5123961,27.5054004 54.5123961,27.0295858 L54.5123961,8.82849168 C54.5123961,8.35267713 54.8993461,7.96695322 55.3766731,7.96695322 L57.4244877,7.96695322 C57.9018147,7.96695322 58.2887647,8.35267713 58.2887647,8.82849168 L58.2887647,10.0727239 C59.367672,8.63312776 61.0138067,7.85898056 63.0522028,7.85898056 Z M62.2648679,19.5200278 C64.583336,19.5200278 66.2138217,17.768936 66.2138217,15.270212 C66.2138217,12.7946443 64.579773,11.0473894 62.2648679,11.0473894 C59.9266633,11.0473894 58.2887647,12.7905385 58.2887647,15.270212 C58.2887647,17.7903752 59.9139816,19.5200278 62.2648679,19.5200278 Z M80.3722779,7.85898056 C84.5463925,7.85898056 87.3645643,10.889818 87.3645643,15.3781847 C87.3645643,19.8142863 84.6011726,22.7894161 80.4265769,22.7894161 C78.3657146,22.7894161 76.7134542,22.0172641 75.6088398,20.5688211 L75.6088398,27.0295858 C75.6088398,27.5054004 75.2218899,27.8911243 74.7445629,27.8911243 L72.6967482,27.8911243 C72.2194212,27.8911243 71.8324713,27.5054004 71.8324713,27.0295858 L71.8324713,8.82849168 C71.8324713,8.35267713 72.2194212,7.96695322 72.6967482,7.96695322 L74.7445629,7.96695322 C75.2218899,7.96695322 75.6088398,8.35267713 75.6088398,8.82849168 L75.6088398,10.0727239 C76.6877471,8.63312776 78.3338818,7.85898056 80.3722779,7.85898056 Z M79.584943,19.5200278 C81.9034111,19.5200278 83.5338968,17.768936 83.5338968,15.270212 C83.5338968,12.7946443 81.8998481,11.0473894 79.584943,11.0473894 C77.2467384,11.0473894 75.6088398,12.7905385 75.6088398,15.270212 C75.6088398,17.7903752 77.2340567,19.5200278 79.584943,19.5200278 Z M99.7524778,12.2466003 C98.8881894,11.5500193 97.8126079,11.1823552 96.5644156,11.1823552 C94.2915054,11.1823552 92.7240598,12.8618186 92.7240598,15.3241983 C92.7240598,17.8329269 94.2845748,19.5200278 96.5644156,19.5200278 C97.7343318,19.5200278 98.7320985,19.2417842 99.5111366,18.6968572 C99.6281535,18.6150054 99.768384,18.4945033 99.930895,18.3356813 C100.246584,18.0271558 100.744949,18.0058557 101.085973,18.2863127 L102.179989,19.1860296 C102.548184,19.4888326 102.600414,20.0318381 102.296649,20.3988665 C102.289313,20.4076508 102.289313,20.4076508 102.281822,20.4163043 C102.044873,20.6876057 101.840032,20.8970448 101.666396,21.0451041 C100.330916,22.1838702 98.5192199,22.7894161 96.3743692,22.7894161 C91.958343,22.7894161 88.9205417,19.7611569 88.9205417,15.3511915 C88.9205417,10.8967569 91.9759095,7.85898056 96.4286682,7.85898056 C98.8014885,7.85898056 100.794553,8.62487971 102.158433,10.0347134 C102.461229,10.3477113 102.452152,10.8461327 102.138159,11.1479689 L102.132953,11.1529249 L100.959939,12.2601334 C100.639063,12.5630055 100.140675,12.5758126 99.804572,12.2898222 C99.7862103,12.2741982 99.7688416,12.2597888 99.7524778,12.2466003 Z M106.52945,1.89349112 C107.709936,1.89349112 108.553382,2.75749287 108.553382,3.96007592 C108.553382,5.16265897 107.709936,6.02666071 106.52945,6.02666071 C105.348964,6.02666071 104.505518,5.16265897 104.505518,3.96007592 C104.505518,2.75749287 105.348964,1.89349112 106.52945,1.89349112 Z M105.505543,7.96695322 L107.553357,7.96695322 C108.030684,7.96695322 108.417634,8.35267713 108.417634,8.82849168 L108.417634,21.7929118 C108.417634,22.2687264 108.030684,22.6544503 107.553357,22.6544503 L105.505543,22.6544503 C105.028216,22.6544503 104.641266,22.2687264 104.641266,21.7929118 L104.641266,8.82849168 C104.641266,8.35267713 105.028216,7.96695322 105.505543,7.96695322 Z M118.15326,7.9231993 C118.221827,7.91194 118.301257,7.9013887 118.391676,7.89150338 C118.866158,7.83962971 119.292987,8.18100215 119.345026,8.65398032 C119.348458,8.68517218 119.350177,8.71652765 119.350177,8.74790655 L119.350177,10.614895 C119.350176,11.0821749 118.976491,11.4642711 118.507877,11.4761531 C118.386474,11.4792313 118.284497,11.4846681 118.202227,11.4923954 C115.851026,11.713238 114.408972,13.2880201 114.408972,15.5671368 L114.408972,21.7929118 C114.408972,22.2687264 114.022022,22.6544503 113.544695,22.6544503 L111.496881,22.6544503 C111.019554,22.6544503 110.632604,22.2687264 110.632604,21.7929118 L110.632604,8.82849168 C110.632604,8.35267713 111.019554,7.96695322 111.496881,7.96695322 L113.544695,7.96695322 C114.022022,7.96695322 114.408972,8.35267713 114.408972,8.82849168 L114.408972,10.4015508 C115.253047,9.03403933 116.528891,8.18993445 118.15326,7.9231993 Z M130.687904,12.29941 C130.489324,12.1301072 130.320467,12.0023204 130.182239,11.9163507 C129.406452,11.4338572 128.491597,11.1823552 127.459113,11.1823552 C125.186203,11.1823552 123.618757,12.8618186 123.618757,15.3241983 C123.618757,17.8329269 125.179272,19.5200278 127.459113,19.5200278 C128.554145,19.5200278 129.498834,19.2762281 130.254323,18.7977377 C130.411698,18.6980637 130.602239,18.5409599 130.824539,18.3268137 C131.14074,18.0222139 131.635967,18.0028294 131.975154,18.281776 L133.071821,19.1836727 C133.440017,19.486475 133.492248,20.0294814 133.188482,20.3965105 C133.179981,20.4066757 133.179981,20.4066757 133.171272,20.4166652 C132.895723,20.7295065 132.657953,20.9678068 132.456862,21.1321068 C131.131372,22.2150914 129.358019,22.7894161 127.269067,22.7894161 C122.853041,22.7894161 119.815239,19.7611569 119.815239,15.3511915 C119.815239,10.8967569 122.870607,7.85898056 127.323366,7.85898056 C129.468532,7.85898056 131.305781,8.48465405 132.649236,9.65192925 C132.749534,9.73907346 132.865836,9.85203097 132.998513,9.99101749 C133.327558,10.3357114 133.313984,10.8810401 132.968194,11.2090426 L132.966653,11.2105006 L131.84391,12.2702588 C131.522803,12.5733542 131.023975,12.585933 130.687904,12.29941 Z M135.795547,2.37936809 L137.843362,2.37936809 C138.320689,2.37936809 138.707639,2.765092 138.707639,3.24090655 L138.707639,21.7929118 C138.707639,22.2687264 138.320689,22.6544503 137.843362,22.6544503 L135.795547,22.6544503 C135.31822,22.6544503 134.93127,22.2687264 134.93127,21.7929118 L134.93127,3.24090655 C134.93127,2.765092 135.31822,2.37936809 135.795547,2.37936809 Z M148.137027,19.7089799 C149.294224,19.7089799 150.384321,19.3612359 151.288983,18.7042806 C151.337987,18.6686938 151.393984,18.6249823 151.456837,18.5732105 C151.805396,18.2861065 152.317038,18.3153362 152.630409,18.6402558 L153.51312,19.5554973 C153.843933,19.8985045 153.833166,20.4438933 153.48907,20.773659 C153.480725,20.7816565 153.47222,20.789486 153.463559,20.7971429 C153.122228,21.0989166 152.833615,21.3259103 152.596637,21.4785384 C151.264917,22.3362445 149.641101,22.7894161 147.838383,22.7894161 C143.288999,22.7894161 140.248808,19.7903437 140.248808,15.3511915 C140.248808,10.9062449 143.321721,7.85898056 147.756934,7.85898056 C152.392658,7.85898056 154.838933,10.5819389 154.86692,15.4019011 C154.86758,15.5155384 154.865389,15.6568287 154.86036,15.825952 C154.846515,16.2916237 154.46382,16.6619677 153.996463,16.6619677 L144.139787,16.6619677 C144.629353,18.5644107 146.126188,19.7089799 148.137027,19.7089799 Z M151.373581,14.0674085 C151.243409,12.0752029 149.872207,10.8314441 147.784084,10.8314441 C145.815899,10.8314441 144.408206,12.0626053 144.047317,14.0674085 L151.373581,14.0674085 Z" id="logotype" fill="#FFFFFF" fill-rule="nonzero"></path>
            <path d="M11.6462224,22.7700213 C14.0961136,24.761847 14.5085414,26.8780865 12.8835057,29.11874 C10.8803651,31.8166227 7.17275067,32.7965812 4.03435968,31.2788345 L4.00807395,31.2661225 C4.00048551,31.2624527 3.99290363,31.2587695 3.98532834,31.2550728 C0.457362146,29.5334498 -1.00140148,25.2891792 0.727088602,21.7752291 L4.63930312,13.821856 L6.83766589,9.35267382 L9.47972884,3.98146724 C10.7636154,1.37137802 13.4414368,-0.10590839 16.1826629,0.00592242673 C18.8306754,-0.00407567854 21.3792927,1.46099216 22.6219868,3.98733883 L31.3746271,21.7811007 C33.1031172,25.2950508 31.6443535,29.5393213 28.1163873,31.2609444 C28.1088121,31.2646411 28.1012302,31.2683243 28.0936417,31.2719941 L28.067356,31.2847061 C24.561074,32.9803673 20.3442948,31.5584259 18.5876946,28.1062872 C17.6772335,26.1991057 18.2844391,24.3989428 20.4093113,22.7057984 L20.4086086,22.7057984 C22.0066779,21.420039 23.0287104,19.4522956 23.0287104,17.246792 C23.0287104,13.373159 19.8759851,10.232959 15.9869012,10.232959 C12.0978174,10.232959 8.94509208,13.373159 8.94509208,17.246792 C8.94509208,19.4893481 10.0017534,21.4860883 11.6462224,22.7700213 Z M15.9932615,20.9226206 C13.9498446,20.9226206 12.2933279,19.272685 12.2933279,17.2373863 C12.2933279,15.2020876 13.9498446,13.552152 15.9932615,13.552152 C18.0366784,13.552152 19.6931951,15.2020876 19.6931951,17.2373863 C19.6931951,19.272685 18.0366784,20.9226206 15.9932615,20.9226206 Z" id="logo" fill="#FF8F34"></path>
        </g>
    </g>
</svg>