<?xml version="1.0" encoding="UTF-8"?>
<svg width="66px" height="67px" viewBox="0 0 66 67" version="1.1" xmlns="http://www.w3.org/2000/svg" xmlns:xlink="http://www.w3.org/1999/xlink">
    <!-- Generator: Sketch 52.4 (67378) - http://www.bohemiancoding.com/sketch -->
    <title>Group</title>
    <desc>Created with Sketch.</desc>
    <g id="Page-1" stroke="none" stroke-width="1" fill="none" fill-rule="evenodd">
        <g id="Group">
            <rect id="Mask" fill="#FFFFFF" x="4.97379915e-14" y="-8.52651283e-14" width="65.9294872" height="66.1057692" rx="12.0000005"></rect>
            <path d="M43.056999,31.5983131 C43.1071704,36.8918925 47.9453357,38.6526248 48,38.6768126 C47.9565681,38.7977518 47.224965,41.1873679 45.4480007,43.6552388 C43.9129072,45.788037 42.3216518,47.9094526 39.8115868,47.9528484 C37.3427072,47.9976671 36.5504492,46.5634706 33.7288725,46.5634706 C30.9072958,46.5634706 30.0266764,47.910164 27.6925855,47.9976671 C25.2708819,48.0851701 23.4250256,45.6948426 21.8772021,43.5705814 C18.7111654,39.224596 16.293206,31.288851 19.5423624,25.9340906 C21.1523385,23.2734284 24.0360677,21.5888166 27.1646631,21.5447094 C29.5429347,21.5048706 31.7909106,23.0692546 33.2428844,23.0692546 C34.6978535,23.0692546 37.4288222,21.1875831 40.2968261,21.4643204 C41.4971943,21.5112733 44.869907,21.9238893 47.0347632,24.9310067 C46.8625332,25.0384292 43.0105718,27.1648247 43.056999,31.5983131 Z M38.4180214,18.5881019 C37.1292918,20.0664057 35.0205975,21.2181736 32.9530887,21.0659325 C32.6737766,19.0540735 33.7161425,16.9632484 34.9082736,15.6499911 C36.2389375,14.1702645 38.4824205,13.0711407 40.335765,13 C40.5723941,15.0488521 39.7022582,17.1069526 38.4180214,18.5881019 Z" id="Apple" fill="#121212" fill-rule="nonzero"></path>
        </g>
    </g>
</svg>