<?xml version="1.0" encoding="UTF-8"?>
<svg width="14px" height="27px" viewBox="0 0 14 27" version="1.1" xmlns="http://www.w3.org/2000/svg" xmlns:xlink="http://www.w3.org/1999/xlink">
    <!-- Generator: Sketch 52.4 (67378) - http://www.bohemiancoding.com/sketch -->
    <title>Path</title>
    <desc>Created with Sketch.</desc>
    <g id="Page-1" stroke="none" stroke-width="1" fill="none" fill-rule="evenodd">
        <path d="M13.2505715,27 C13.0612818,27 12.8714123,26.9256 12.7253142,26.7774 L0.344373979,14.1636027 C0.132473829,14.0226027 0,13.7784027 0,13.5117028 C0,13.2642028 0.113921695,13.0287029 0.299153153,12.8814029 L12.6258864,0.224705534 C12.9201116,-0.0764944039 13.3940607,-0.0746944042 13.6850973,0.228905533 C13.9770035,0.53310547 13.9746845,1.02390537 13.6807491,1.32540531 L1.82593577,13.4979028 L13.7764085,25.6725003 C14.0712135,25.9728002 14.0749819,26.4636001 13.784815,26.7687 C13.6381372,26.9226 13.4444993,27 13.2505715,27 Z" id="Path" fill="#B2BCCA" fill-rule="nonzero" transform="translate(7.000000, 13.500000) scale(-1, 1) translate(-7.000000, -13.500000) "></path>
    </g>
</svg>