<?xml version="1.0" encoding="UTF-8"?>
<svg width="66px" height="66px" viewBox="0 0 66 66" version="1.1" xmlns="http://www.w3.org/2000/svg" xmlns:xlink="http://www.w3.org/1999/xlink">
    <!-- Generator: Sketch 52.4 (67378) - http://www.bohemiancoding.com/sketch -->
    <title>Group 2</title>
    <desc>Created with Sketch.</desc>
    <defs>
        <linearGradient x1="50%" y1="0%" x2="50%" y2="100%" id="linearGradient-1">
            <stop stop-color="#FF8E34" offset="0%"></stop>
            <stop stop-color="#FF7734" offset="100%"></stop>
        </linearGradient>
    </defs>
    <g id="Page-1" stroke="none" stroke-width="1" fill="none" fill-rule="evenodd">
        <g id="Group-2">
            <g id="Group" fill="url(#linearGradient-1)">
                <rect id="Rectangle" x="0" y="0" width="66" height="66" rx="12"></rect>
            </g>
            <path d="M49.6153846,30.1530856 C47.879782,28.8494239 45.7224123,28.0769231 43.3846154,28.0769231 C37.6493507,28.0769231 33,32.7262738 33,38.4615385 C33,41.4703827 34.2796311,44.1803531 36.3243667,46.0769231 L19.1538462,46.0769231 C16.8597403,46.0769231 15,44.2171828 15,41.9230769 L15,21.1538462 C15,18.8597403 16.8597403,17 19.1538462,17 L45.4615385,17 C47.7556443,17 49.6153846,18.8597403 49.6153846,21.1538462 L49.6153846,30.1530856 Z M20.5384615,27.7710615 L20.5384615,30.2633692 L31.6153846,30.2633692 L31.6153846,27.7710615 L20.5384615,27.7710615 Z M20.5384615,33.3095231 L20.5384615,35.8018308 L24.6923077,35.8018308 L24.6923077,33.3095231 L20.5384615,33.3095231 Z M20.5384615,22.5384615 L20.5384615,25.0307692 L41.3076923,25.0307692 L41.3076923,22.5384615 L20.5384615,22.5384615 Z M38.5384615,44.3362371 C36.8471492,42.9394486 35.7692308,40.8263742 35.7692308,38.4615385 C35.7692308,34.2556777 39.1787546,30.8461538 43.3846154,30.8461538 C47.5904762,30.8461538 51,34.2556777 51,38.4615385 C51,40.8263742 49.9220815,42.9394486 48.2307692,44.3362371 L48.2307692,53 L43.3846154,48.8461538 L38.5384615,53 L38.5384615,44.3362371 Z M43.3846154,43.3076923 C46.0610722,43.3076923 48.2307692,41.1379953 48.2307692,38.4615385 C48.2307692,35.7850816 46.0610722,33.6153846 43.3846154,33.6153846 C40.7081585,33.6153846 38.5384615,35.7850816 38.5384615,38.4615385 C38.5384615,41.1379953 40.7081585,43.3076923 43.3846154,43.3076923 Z" id="Combined-Shape" fill="#FFFFFF"></path>
        </g>
    </g>
</svg>