<?xml version="1.0" encoding="UTF-8"?>
<svg width="1440px" height="410px" viewBox="0 0 1440 410" version="1.1" xmlns="http://www.w3.org/2000/svg" xmlns:xlink="http://www.w3.org/1999/xlink">
    <!-- Generator: Sketch 52.4 (67378) - http://www.bohemiancoding.com/sketch -->
    <title>Background</title>
    <desc>Created with Sketch.</desc>
    <defs>
        <rect id="path-1" x="0" y="0" width="1440" height="410"></rect>
    </defs>
    <g id="Page-1" stroke="none" stroke-width="1" fill="none" fill-rule="evenodd">
        <g id="Background">
            <mask id="mask-2" fill="white">
                <use xlink:href="#path-1"></use>
            </mask>
            <use id="Mask" fill="#112238" xlink:href="#path-1"></use>
            <path d="M1307.35908,288.462949 C1430.91552,388.925656 1451.71567,495.663489 1369.75953,608.676451 C1268.73426,744.750908 1081.7465,794.177564 923.466643,717.626215 L922.140963,716.985056 C921.758252,716.799959 921.375872,716.614185 920.993824,716.427733 C743.066347,629.593372 669.495877,415.522974 756.66958,238.288117 L953.976023,-162.860139 L1064.84702,-388.274514 L1198.09535,-659.184746 C1262.84617,-790.831121 1397.89791,-865.341754 1536.14738,-859.701288 C1669.69577,-860.205567 1798.23131,-786.311208 1860.90465,-658.888598 L2302.33042,238.584265 C2389.50412,415.819122 2315.93365,629.88952 2138.00618,716.723881 C2137.62413,716.910333 2137.24175,717.096108 2136.85904,717.281204 L2135.53336,717.922363 C1958.69949,803.447275 1746.0328,731.728107 1657.44141,557.61086 C1611.52372,461.417394 1642.14719,370.621677 1749.31181,285.223709 L1749.27637,285.223709 C1829.8725,220.373219 1881.41712,121.125159 1881.41712,9.88507276 C1881.41712,-185.491293 1722.41433,-343.875131 1526.27445,-343.875131 C1330.13457,-343.875131 1171.13178,-185.491293 1171.13178,9.88507276 C1171.13178,122.993997 1224.42285,223.704576 1307.35908,288.462949 Z M1527,196 C1424.27504,196 1341,112.724963 1341,10 C1341,-92.7249635 1424.27504,-176 1527,-176 C1629.72496,-176 1713,-92.7249635 1713,10 C1713,112.724963 1629.72496,196 1527,196 Z" id="Symbol" fill-opacity="0.0399093094" fill="#000000" mask="url(#mask-2)"></path>
        </g>
    </g>
</svg>