<?xml version="1.0" encoding="UTF-8"?>
<svg width="1440px" height="170px" viewBox="0 0 1440 170" version="1.1" xmlns="http://www.w3.org/2000/svg" xmlns:xlink="http://www.w3.org/1999/xlink">
    <!-- Generator: Sketch 52.4 (67378) - http://www.bohemiancoding.com/sketch -->
    <title>Group</title>
    <desc>Created with Sketch.</desc>
    <defs>
        <rect id="path-1" x="0" y="0" width="1440" height="170"></rect>
    </defs>
    <g id="Page-1" stroke="none" stroke-width="1" fill="none" fill-rule="evenodd">
        <g id="Group">
            <mask id="mask-2" fill="white">
                <use xlink:href="#path-1"></use>
            </mask>
            <use id="Mask" fill="#FF8F34" xlink:href="#path-1"></use>
            <path d="M-439.324363,310.859521 C-278.678088,441.448591 -251.634038,580.194548 -358.192213,727.097394 C-489.543785,903.977327 -732.662517,968.225854 -938.455662,868.718587 L-940.179291,867.88516 C-940.676887,867.644557 -941.174052,867.403073 -941.670785,867.160709 C-1173.00947,754.2868 -1268.66472,476.021809 -1155.32275,245.638457 L-898.787815,-275.804567 L-754.63497,-568.815323 L-581.387454,-920.965054 C-497.199392,-1092.08903 -321.607098,-1188.94362 -141.857169,-1181.61171 C31.7804738,-1182.26721 198.900497,-1086.2137 280.387454,-920.580098 L854.322751,246.023413 C967.664718,476.406765 872.009475,754.671755 640.670785,867.545665 C640.174052,867.788029 639.676887,868.029513 639.179291,868.270115 L637.455662,869.103543 C407.538868,980.275331 131.032769,887.049299 15.8475388,660.718453 C-43.8539638,535.678868 -4.03778282,417.655687 135.296082,306.648911 L135.250001,306.648911 C240.03991,222.35131 307.057465,93.3411304 307.057465,-51.2571979 C307.057465,-305.222263 100.324376,-511.101626 -154.693814,-511.101626 C-409.712004,-511.101626 -616.445094,-305.222263 -616.445094,-51.2571979 C-616.445094,95.7703874 -547.156829,226.681661 -439.324363,310.859521 Z M-154,191 C-287.652909,191 -396,82.6529095 -396,-51 C-396,-184.652909 -287.652909,-293 -154,-293 C-20.3470905,-293 88,-184.652909 88,-51 C88,82.6529095 -20.3470905,191 -154,191 Z" id="Symbol" fill="#FF9945" mask="url(#mask-2)"></path>
        </g>
    </g>
</svg>