<?xml version="1.0" encoding="UTF-8"?>
<svg width="535px" height="424px" viewBox="0 0 535 424" version="1.1" xmlns="http://www.w3.org/2000/svg" xmlns:xlink="http://www.w3.org/1999/xlink">
    <!-- Generator: Sketch 52.4 (67378) - http://www.bohemiancoding.com/sketch -->
    <title>Group</title>
    <desc>Created with Sketch.</desc>
    <defs>
        <rect id="path-1" x="0" y="0" width="563" height="424"></rect>
    </defs>
    <g id="Page-1" stroke="none" stroke-width="1" fill="none" fill-rule="evenodd">
        <g id="Group" transform="translate(-7.000000, 0.000000)">
            <mask id="mask-2" fill="white">
                <use xlink:href="#path-1"></use>
            </mask>
            <g id="Rectangle"></g>
            <g id="Group-2" mask="url(#mask-2)">
                <g transform="translate(8.000000, 0.000000)">
                    <g id="Boxes" transform="translate(0.000000, 348.000000)">
                        <path d="M256.760289,58.1398146 L256.71393,58.5018653 L256.685155,58.5895868 L256.563662,58.8846501 L256.53169,58.9484475 L256.290303,59.2881691 L256.224761,59.3631311 L255.914634,59.667764 L255.871472,59.7076374 C255.741986,59.817688 255.593317,59.9245488 255.435056,60.0298146 L255.299176,60.1175362 C255.16969,60.1988779 255.032211,60.2786248 254.886739,60.3583716 L254.71569,60.4508779 C254.560627,60.5290298 254.392775,60.6071817 254.220127,60.6837387 L254.025099,60.7714602 C253.775718,60.876726 253.511951,60.977207 253.227401,61.0760931 L225.971415,70.4862197 C225.715641,70.5755362 225.4215,70.6409286 225.149739,70.7190805 C224.748493,70.8355108 224.350444,70.9535362 223.920423,71.0492324 C223.40088,71.1640678 222.860556,71.2613589 222.307444,71.3458906 C221.970141,71.3969286 221.623246,71.436802 221.276352,71.4766754 C220.84793,71.5277134 220.422704,71.5819412 219.983092,71.6138399 L219.717725,71.6329792 C219.015944,71.6808273 218.309366,71.7095362 217.599592,71.712726 L217.551634,71.712726 C216.809887,71.7159159 216.066542,71.6951817 215.335986,71.6489286 L215.310408,71.6473336 C214.578254,71.6010805 213.857289,71.5309032 213.158704,71.436802 L213.109148,71.4304222 C212.424951,71.336321 211.763134,71.2198906 211.133289,71.0795362 L211.070944,71.0667767 C210.426711,70.9232324 209.814451,70.7541691 209.246951,70.5595868 L182.405,61.3871058 C182.254732,61.3360678 182.122049,61.280245 181.981373,61.2260172 L181.605704,61.0840678 L181.252415,60.9197893 L180.916711,60.7618906 L180.636958,60.600802 L180.333225,60.423764 L180.109423,60.2578906 L179.855246,60.071283 L179.661817,59.8814855 L179.482775,59.7044475 L179.31812,59.4731817 L179.217408,59.3312324 L179.137479,59.1430298 C179.055951,58.9516374 179.001599,58.760245 179,58.5672577 L179.095915,70.5452324 C179.097514,70.7382197 179.151866,70.9296121 179.233394,71.1225994 L179.313324,71.310802 L179.414035,71.4543463 L179.57869,71.6840172 L179.735352,71.838726 L179.951162,72.0508526 L180.125408,72.1800425 L180.429141,72.4033336 L180.656141,72.5357134 L181.012627,72.7414602 L181.254014,72.8547007 C181.399486,72.9248779 181.541761,72.9950551 181.70162,73.0636374 L182.016542,73.1832577 C182.171606,73.2438653 182.321873,73.3044729 182.489725,73.3618906 L182.500915,73.3666754 L209.342866,82.5391564 C209.645,82.6412324 209.958324,82.7385235 210.284437,82.8278399 C210.551401,82.901207 210.827958,82.9697893 211.10931,83.0335868 L211.168458,83.0463463 L211.226007,83.0591058 C211.43862,83.1053589 211.651232,83.1516121 211.870239,83.1930805 C212.110028,83.2393336 212.353014,83.2823969 212.600796,83.3206754 C212.799021,83.3541691 213.002042,83.381283 213.205063,83.4099918 L213.25462,83.4163716 L213.315366,83.4243463 C213.548761,83.456245 213.783754,83.4849539 214.023542,83.5104729 C214.258535,83.5359918 214.496725,83.556726 214.734915,83.5774602 C214.95712,83.5965994 215.180923,83.6125488 215.406324,83.6253083 L215.431901,83.6269032 L215.459077,83.6300931 C215.705261,83.6444475 215.951444,83.657207 216.199225,83.6667767 C216.451803,83.6779412 216.705979,83.684321 216.958556,83.6891058 C217.190352,83.6907007 217.420549,83.6922956 217.652345,83.6907007 L217.745063,83.6907007 C218.018423,83.6891058 218.29338,83.6859159 218.568338,83.6779412 C218.870472,83.6683716 219.172606,83.6556121 219.473141,83.6380678 L219.810444,83.6141437 L220.080606,83.5934096 C220.246859,83.5806501 220.414711,83.5710805 220.579366,83.5551311 C220.849528,83.532802 221.105303,83.4881437 221.372268,83.456245 C221.719162,83.4163716 222.066056,83.3780931 222.404958,83.3254602 L222.703894,83.2887767 C223.098746,83.2233843 223.487204,83.1500172 223.864472,83.0686754 L224.014739,83.028802 C224.447958,82.9331058 224.847606,82.8150805 225.252049,82.6954602 C225.461465,82.6348526 225.694859,82.5901944 225.894683,82.524802 L226.067331,82.4657893 L253.323317,73.0556627 C253.595077,72.9615615 253.849254,72.8642703 254.087444,72.7653843 L254.121014,72.7510298 L254.324035,72.6585235 L254.730077,72.4735108 L254.811606,72.4304475 L254.984254,72.3363463 L255.222444,72.2055615 L255.395092,72.0971058 L255.53257,72.0093843 L255.620493,71.9519665 L255.946606,71.7031564 L255.965789,71.687207 L256.012148,71.6473336 L256.215169,71.4591311 L256.320676,71.3411058 L256.387817,71.2661437 L256.437373,71.210321 L256.61162,70.958321 L256.626007,70.9280172 L256.659577,70.8626248 L256.742704,70.6999412 L256.782669,70.5691564 L256.809845,70.4830298 L256.825831,70.428802 L256.857803,70.1417134 L256.857803,70.1193843 L256.760289,58.1398146" id="Fill-154" stroke="#142840" stroke-width="0.8" fill="#142840"></path>
                        <path d="M253.366479,55.3263463 C257.948042,56.8941691 257.880901,59.4683969 253.227401,61.0760931 L225.971415,70.4862197 C221.317915,72.0939159 213.830113,72.1258146 209.246951,70.5595868 L182.405,61.3871058 C177.821838,59.8208779 177.869796,57.2450551 182.523296,55.6389539 L209.779282,46.2272324 C214.432782,44.6195362 221.941366,44.5876374 226.524528,46.1538653 L253.366479,55.3263463" id="Fill-155" stroke="#1A3352" stroke-width="0.8" fill="#1A3352"></path>
                        <path d="M480.761887,45.1388276 L480.71393,45.5024732 L480.686754,45.5901947 L480.565261,45.8836631 L480.53169,45.9474605 L480.291901,46.287182 L480.224761,46.3621441 L479.914634,46.666777 L479.871472,46.7082453 C479.740387,46.816701 479.593317,46.9251567 479.436655,47.0304226 L479.300775,47.1181441 C479.171289,47.1978909 479.03381,47.2776377 478.886739,47.3573846 L478.717289,47.4514858 C478.562225,47.5296377 478.392775,47.6061947 478.221725,47.6827517 L478.026697,47.7720681 C477.777317,47.875739 477.511951,47.977815 477.229,48.0751061 L449.971415,57.4868276 C449.715641,57.5745491 449.4215,57.6399415 449.149739,57.7180934 C448.748493,57.8345238 448.350444,57.9541441 447.920423,58.0482453 C447.40088,58.1630808 446.860556,58.2619669 446.307444,58.3464985 C445.970141,58.3975365 445.623246,58.435815 445.277951,58.4772833 C444.849528,58.5267264 444.422704,58.5809542 443.98469,58.6144479 L443.717725,58.6319922 C443.015944,58.6814352 442.309366,58.7085491 441.60119,58.711739 L441.551634,58.711739 C440.809887,58.7149289 440.066542,58.6941947 439.335986,58.6479415 L439.310408,58.6463466 C438.578254,58.6016884 437.858887,58.5315112 437.158704,58.435815 L437.109148,58.4294352 C436.424951,58.3369289 435.763134,58.2204985 435.133289,58.0801441 L435.072542,58.0673846 C434.426711,57.9222453 433.814451,57.754777 433.246951,57.5601947 L406.405,48.3877137 C406.254732,48.3350808 406.122049,48.279258 405.982972,48.2266251 L405.605704,48.0830808 L405.252415,47.9203972 L404.916711,47.7624985 L404.638556,47.599815 L404.333225,47.422777 L404.109423,47.2584985 L403.855246,47.070296 L403.661817,46.8804985 L403.484373,46.7050555 L403.31812,46.4721947 L403.217408,46.3318403 L403.137479,46.1420428 C403.055951,45.9506504 403.001599,45.759258 403,45.5662707 L403.095915,57.5458403 C403.097514,57.7388276 403.151866,57.93022 403.233394,58.1216124 L403.313324,58.309815 L403.414035,58.4533593 L403.580289,58.6846251 L403.735352,58.837739 L403.952761,59.0498656 L404.125408,59.1790555 L404.430739,59.4039415 L404.656141,59.5363213 L405.014225,59.7420681 L405.254014,59.8537137 C405.399486,59.9254858 405.541761,59.9956631 405.703218,60.0642453 L406.016542,60.1822707 C406.173204,60.2428782 406.321873,60.3034858 406.491324,60.3609036 L406.502514,60.3656884 L433.344465,69.5381694 C433.645,69.6418403 433.958324,69.7375365 434.286035,69.8284479 C434.553,69.901815 434.827958,69.9703972 435.10931,70.0341947 L435.168458,70.0469542 L435.226007,70.0581188 C435.43862,70.1059669 435.652831,70.1506251 435.871838,70.1920934 C436.110028,70.2399415 436.354613,70.2814099 436.600796,70.3212833 C436.80062,70.353182 437.002042,70.3818909 437.205063,70.4090048 L437.256218,70.4153846 L437.315366,70.4249542 C437.550359,70.4568529 437.785352,70.4839669 438.023542,70.5110808 C438.258535,70.5350048 438.496725,70.5573339 438.736514,70.5780681 C438.95712,70.5956124 439.180923,70.6115618 439.406324,70.6259162 L439.431901,70.6275112 L439.460676,70.630701 C439.705261,70.6450555 439.953042,70.65622 440.200824,70.6657896 C440.453401,70.6769542 440.705979,70.6833339 440.958556,70.6881188 C441.190352,70.6913086 441.420549,70.6929036 441.652345,70.6913086 L441.745063,70.6913086 C442.018423,70.6897137 442.29338,70.6849289 442.568338,70.6769542 C442.87207,70.6673846 443.172606,70.65622 443.473141,70.6386757 L443.812042,70.6131567 L444.082204,70.5924226 C444.246859,70.581258 444.414711,70.5716884 444.579366,70.555739 C444.851127,70.531815 445.105303,70.4871567 445.372268,70.4568529 C445.720761,70.4153846 446.066056,70.378701 446.404958,70.3244732 L446.703894,70.2877896 C447.098746,70.2223972 447.487204,70.1490301 447.86607,70.0676884 L448.014739,70.0294099 C448.449556,69.9321188 448.849204,69.8140934 449.252049,69.6960681 C449.463063,69.6354605 449.694859,69.5908023 449.894683,69.5254099 L450.06893,69.4648023 L477.323317,60.0546757 C477.593479,59.9605745 477.850852,59.8648782 478.089042,59.7643972 L478.119415,59.7516377 L478.322437,59.6591314 L478.730077,59.4741188 L478.810007,59.4294605 L478.984254,59.3369542 L479.224042,59.2061694 L479.395092,59.0961188 L479.530972,59.0099922 L479.622092,58.9525745 L479.948204,58.7021694 L479.967387,58.687815 L480.010549,58.6463466 L480.216768,58.4581441 L480.320676,58.3417137 L480.386218,58.2667517 L480.437373,58.2109289 L480.61162,57.9589289 L480.627606,57.9270301 L480.659577,57.8632327 L480.742704,57.6989542 L480.782669,57.5681694 L480.809845,57.4836377 L480.825831,57.4294099 L480.856204,57.1423213 L480.856204,57.1183972 L480.761887,45.1388276" id="Fill-156" stroke="#DE7621" stroke-width="0.8" fill="#DE7621"></path>
                        <path d="M477.366479,42.3269542 C481.949641,43.893182 481.8825,46.4674099 477.229,48.0751061 L449.971415,57.4868276 C445.317915,59.0929289 437.830113,59.1264226 433.246951,57.5601947 L406.405,48.3877137 C401.821838,46.8198909 401.869796,44.2456631 406.523296,42.6379669 L433.779282,33.2278403 C438.432782,31.6201441 445.941366,31.5866504 450.524528,33.1544732 L477.366479,42.3269542" id="Fill-157" stroke="#FF8F34" stroke-width="0.8" fill="#FF8F34"></path>
                        <path d="M77.7618873,26.1388276 L77.7139296,26.5024732 L77.6867535,26.5901947 L77.5652606,26.8836631 L77.5316901,26.9474605 L77.2919014,27.287182 L77.2247606,27.3621441 L76.9146338,27.666777 L76.8714718,27.7082453 C76.7403873,27.816701 76.5933169,27.9251567 76.4366549,28.0304226 L76.3007746,28.1181441 C76.1712887,28.1978909 76.0338099,28.2776377 75.8867394,28.3573846 L75.7172887,28.4514858 C75.5622254,28.5296377 75.3927746,28.6061947 75.2217254,28.6827517 L75.0266972,28.7720681 C74.7773169,28.875739 74.5119507,28.977815 74.229,29.0751061 L46.9714155,38.4868276 C46.7156408,38.5745491 46.4215,38.6399415 46.1497394,38.7180934 C45.748493,38.8345238 45.3504437,38.9541441 44.9204225,39.0482453 C44.4008803,39.1630808 43.8605563,39.2619669 43.3074437,39.3464985 C42.9701408,39.3975365 42.6232465,39.435815 42.2779507,39.4772833 C41.8495282,39.5267264 41.4227042,39.5809542 40.9846901,39.6144479 L40.7177254,39.6319922 C40.0159437,39.6814352 39.3093662,39.7085491 38.6011901,39.711739 L38.5516338,39.711739 C37.8098873,39.7149289 37.0665423,39.6941947 36.3359859,39.6479415 L36.3104085,39.6463466 C35.5782535,39.6016884 34.8588873,39.5315112 34.1587042,39.435815 L34.1091479,39.4294352 C33.4249507,39.3369289 32.7631338,39.2204985 32.1332887,39.0801441 L32.0725423,39.0673846 C31.4267113,38.9222453 30.8144507,38.754777 30.2469507,38.5601947 L3.405,29.3877137 C3.25473239,29.3350808 3.1220493,29.279258 2.98297183,29.2266251 L2.60570423,29.0830808 L2.25241549,28.9203972 L1.91671127,28.7624985 L1.63855634,28.599815 L1.33322535,28.422777 L1.10942254,28.2584985 L0.855246479,28.070296 L0.661816901,27.8804985 L0.484373239,27.7050555 L0.318119718,27.4721947 L0.217408451,27.3318403 L0.137478873,27.1420428 C0.0559507042,26.9506504 0.00159859155,26.759258 0,26.5662707 L0.095915493,38.5458403 C0.0975140845,38.7388276 0.151866197,38.93022 0.233394366,39.1216124 L0.313323944,39.309815 L0.414035211,39.4533593 L0.580288732,39.6846251 L0.735352113,39.837739 L0.952760563,40.0498656 L1.12540845,40.1790555 L1.43073944,40.4039415 L1.65614085,40.5363213 L2.01422535,40.7420681 L2.25401408,40.8537137 C2.39948592,40.9254858 2.54176056,40.9956631 2.70321831,41.0642453 L3.01654225,41.1822707 C3.17320423,41.2428782 3.32187324,41.3034858 3.49132394,41.3609036 L3.50251408,41.3656884 L30.3444648,50.5381694 C30.645,50.6418403 30.9583239,50.7375365 31.2860352,50.8284479 C31.553,50.901815 31.8279577,50.9703972 32.1093099,51.0341947 L32.1684577,51.0469542 L32.226007,51.0581188 C32.4386197,51.1059669 32.652831,51.1506251 32.871838,51.1920934 C33.1100282,51.2399415 33.3546127,51.2814099 33.6007958,51.3212833 C33.8006197,51.353182 34.0020423,51.3818909 34.2050634,51.4090048 L34.2562183,51.4153846 L34.3153662,51.4249542 C34.5503592,51.4568529 34.7853521,51.4839669 35.0235423,51.5110808 C35.2585352,51.5350048 35.4967254,51.5573339 35.7365141,51.5780681 C35.9571197,51.5956124 36.1809225,51.6115618 36.4063239,51.6259162 L36.4319014,51.6275112 L36.4606761,51.630701 C36.7052606,51.6450555 36.9530423,51.65622 37.2008239,51.6657896 C37.4534014,51.6769542 37.7059789,51.6833339 37.9585563,51.6881188 C38.1903521,51.6913086 38.4205493,51.6929036 38.6523451,51.6913086 L38.7450634,51.6913086 C39.0184225,51.6897137 39.2933803,51.6849289 39.568338,51.6769542 C39.8720704,51.6673846 40.1726056,51.65622 40.4731408,51.6386757 L40.8120423,51.6131567 L41.0822042,51.5924226 C41.2468592,51.581258 41.4147113,51.5716884 41.5793662,51.555739 C41.8511268,51.531815 42.1053028,51.4871567 42.3722676,51.4568529 C42.7207606,51.4153846 43.0660563,51.378701 43.4049577,51.3244732 L43.7038944,51.2877896 C44.0987465,51.2223972 44.4872042,51.1490301 44.8660704,51.0676884 L45.0147394,51.0294099 C45.4495563,50.9321188 45.8492042,50.8140934 46.2520493,50.6960681 C46.4630634,50.6354605 46.6948592,50.5908023 46.8946831,50.5254099 L47.0689296,50.4648023 L74.3233169,41.0546757 C74.5934789,40.9605745 74.8508521,40.8648782 75.0890423,40.7643972 L75.1194155,40.7516377 L75.3224366,40.6591314 L75.7300775,40.4741188 L75.810007,40.4294605 L75.9842535,40.3369542 L76.2240423,40.2061694 L76.3950915,40.0961188 L76.5309718,40.0099922 L76.6220915,39.9525745 L76.9482042,39.7021694 L76.9673873,39.687815 L77.0105493,39.6463466 L77.2167676,39.4581441 L77.3206761,39.3417137 L77.3862183,39.2667517 L77.4373732,39.2109289 L77.6116197,38.9589289 L77.6276056,38.9270301 L77.6595775,38.8632327 L77.7427042,38.6989542 L77.782669,38.5681694 L77.8098451,38.4836377 L77.825831,38.4294099 L77.8562042,38.1423213 L77.8562042,38.1183972 L77.7618873,26.1388276" id="Fill-156" stroke="#DE7621" stroke-width="0.8" fill="#DE7621"></path>
                        <path d="M74.3664789,23.3269542 C78.9496408,24.893182 78.8825,27.4674099 74.229,29.0751061 L46.9714155,38.4868276 C42.3179155,40.0929289 34.8301127,40.1264226 30.2469507,38.5601947 L3.405,29.3877137 C-1.17816197,27.8198909 -1.13020423,25.2456631 3.52329577,23.6379669 L30.7792817,14.2278403 C35.4327817,12.6201441 42.9413662,12.5866504 47.5245282,14.1544732 L74.3664789,23.3269542" id="Fill-157" stroke="#FF8F34" stroke-width="0.8" fill="#FF8F34"></path>
                    </g>
                    <g id="Illustration" transform="translate(84.000000, 0.000000)">
                        <g id="Icon" transform="translate(328.117647, 64.767901)">
                            <path d="M83.4862414,0 L19.7217259,0 C8.82827698,0 0,8.89848188 0,19.8752453 L0,84.1274398 C0,95.1042032 8.82827698,104 19.7217259,104 L83.4862414,104 C94.3770256,104 103.207967,95.1042032 103.207967,84.1274398 L103.207967,19.8752453 C103.207967,8.89848188 94.3770256,0 83.4862414,0" id="Fill-142" fill="#FF8F34"></path>
                            <path d="M46.0625,32.95 C44.7791603,32.95 43.7333374,32.5125044 42.925,31.6375 C42.1166626,30.7624956 41.7125,29.591674 41.7125,28.125 C41.7125,26.658326 42.1166626,25.4875044 42.925,24.6125 C43.7333374,23.7374956 44.7791603,23.3 46.0625,23.3 C47.3458398,23.3 48.387496,23.7374956 49.1875,24.6125 C49.987504,25.4875044 50.3875,26.658326 50.3875,28.125 C50.3875,29.591674 49.987504,30.7624956 49.1875,31.6375 C48.387496,32.5125044 47.3458398,32.95 46.0625,32.95 Z M56.4875,23.5 L59.4625,23.5 L47.5125,41 L44.5375,41 L56.4875,23.5 Z M46.0625,30.9 C46.6291695,30.9 47.0749984,30.666669 47.4,30.2 C47.7250016,29.733331 47.8875,29.0416712 47.8875,28.125 C47.8875,27.2083287 47.7250016,26.516669 47.4,26.05 C47.0749984,25.583331 46.6291695,25.35 46.0625,25.35 C45.5124973,25.35 45.070835,25.5874976 44.7375,26.0625 C44.404165,26.5375024 44.2375,27.2249955 44.2375,28.125 C44.2375,29.0250045 44.404165,29.7124976 44.7375,30.1875 C45.070835,30.6625024 45.5124973,30.9 46.0625,30.9 Z M57.9375,41.2 C57.1041625,41.2 56.3583366,41.0041686 55.7,40.6125 C55.0416634,40.2208314 54.5291685,39.658337 54.1625,38.925 C53.7958315,38.191663 53.6125,37.3416715 53.6125,36.375 C53.6125,35.4083285 53.7958315,34.558337 54.1625,33.825 C54.5291685,33.091663 55.0416634,32.5291686 55.7,32.1375 C56.3583366,31.7458314 57.1041625,31.55 57.9375,31.55 C59.2208397,31.55 60.2666626,31.9874956 61.075,32.8625 C61.8833374,33.7375044 62.2875,34.908326 62.2875,36.375 C62.2875,37.841674 61.8833374,39.0124956 61.075,39.8875 C60.2666626,40.7625044 59.2208397,41.2 57.9375,41.2 Z M57.9375,39.15 C58.5041695,39.15 58.9499984,38.9125024 59.275,38.4375 C59.6000016,37.9624976 59.7625,37.2750045 59.7625,36.375 C59.7625,35.4749955 59.6000016,34.7875024 59.275,34.3125 C58.9499984,33.8374976 58.5041695,33.6 57.9375,33.6 C57.3874972,33.6 56.945835,33.833331 56.6125,34.3 C56.279165,34.766669 56.1125,35.4583287 56.1125,36.375 C56.1125,37.2916713 56.279165,37.983331 56.6125,38.45 C56.945835,38.916669 57.3874972,39.15 57.9375,39.15 Z M48.7375,74.06 L48.7375,80 L24.9325,80 L24.9325,75.275 L37.0825,63.8 C38.3725065,62.5699939 39.2424977,61.5125044 39.6925,60.6275 C40.1425022,59.7424956 40.3675,58.8650044 40.3675,57.995 C40.3675,56.7349937 39.9400043,55.7675034 39.085,55.0925 C38.2299957,54.4174966 36.9775082,54.08 35.3275,54.08 C33.9474931,54.08 32.7025055,54.3424974 31.5925,54.8675 C30.4824944,55.3925026 29.5525037,56.1799948 28.8025,57.23 L23.4925,53.81 C24.7225061,51.9799908 26.4174892,50.5475052 28.5775,49.5125 C30.7375108,48.4774948 33.212486,47.96 36.0025,47.96 C38.3425117,47.96 40.3899912,48.3424962 42.145,49.1075 C43.9000088,49.8725038 45.2649951,50.952493 46.24,52.3475 C47.2150049,53.742507 47.7025,55.3849905 47.7025,57.275 C47.7025,58.9850086 47.3425036,60.5899925 46.6225,62.09 C45.9024964,63.5900075 44.5075103,65.2999904 42.4375,67.22 L35.1925,74.06 L48.7375,74.06 Z M65.2525,80.54 C62.642487,80.54 60.3175102,79.8950064 58.2775,78.605 C56.2374898,77.3149935 54.6400058,75.4475122 53.485,73.0025 C52.3299942,70.5574878 51.7525,67.640017 51.7525,64.25 C51.7525,60.859983 52.3299942,57.9425122 53.485,55.4975 C54.6400058,53.0524878 56.2374898,51.1850065 58.2775,49.895 C60.3175102,48.6049936 62.642487,47.96 65.2525,47.96 C67.862513,47.96 70.1874898,48.6049936 72.2275,49.895 C74.2675102,51.1850065 75.8649942,53.0524878 77.02,55.4975 C78.1750058,57.9425122 78.7525,60.859983 78.7525,64.25 C78.7525,67.640017 78.1750058,70.5574878 77.02,73.0025 C75.8649942,75.4475122 74.2675102,77.3149935 72.2275,78.605 C70.1874898,79.8950064 67.862513,80.54 65.2525,80.54 Z M65.2525,74.375 C67.1725096,74.375 68.6799945,73.5500082 69.775,71.9 C70.8700055,70.2499917 71.4175,67.7000173 71.4175,64.25 C71.4175,60.7999827 70.8700055,58.2500082 69.775,56.6 C68.6799945,54.9499917 67.1725096,54.125 65.2525,54.125 C63.3624905,54.125 61.8700055,54.9499917 60.775,56.6 C59.6799945,58.2500082 59.1325,60.7999827 59.1325,64.25 C59.1325,67.7000173 59.6799945,70.2499917 60.775,71.9 C61.8700055,73.5500082 63.3624905,74.375 65.2525,74.375 Z" id="%-20" fill="#FFFFFF"></path>
                        </g>
                        <g id="Shadow" transform="translate(0.470588, 298.207407)" fill="#000000" fill-opacity="0.0710773601">
                            <ellipse id="Oval" cx="69.8823529" cy="34.0740741" rx="69.8823529" ry="16.9271207"></ellipse>
                            <ellipse id="Oval" cx="245.94958" cy="16.9271207" rx="69.8823529" ry="16.9271207"></ellipse>
                        </g>
                        <path d="M157.967466,338.569284 L160.208838,338.569284 C160.638308,338.569284 161.008985,338.268252 161.097095,337.847917 L185.533986,221.270719 C185.739653,220.289577 185.111006,219.327478 184.129864,219.121811 C184.052735,219.105643 183.974636,219.094516 183.896062,219.088499 L177.177647,218.574025 L157.072599,337.510452 C156.989055,338.004674 157.321976,338.473045 157.816198,338.556589 C157.866178,338.565037 157.916778,338.569284 157.967466,338.569284 Z" id="Fill-119" fill="#D5D7DE"></path>
                        <path d="M254.835546,338.569284 L254.294254,338.569284 C253.43046,338.569284 252.686327,337.960555 252.515133,337.113895 L230.519664,228.33284 L239.300336,227.660444 L256.544809,336.568081 C256.694283,337.512081 256.050192,338.398516 255.106192,338.54799 C255.016673,338.562164 254.92618,338.569284 254.835546,338.569284 Z" id="Fill-120" fill="#D5D7DE"></path>
                        <g id="Woman" transform="translate(157.578954, 55.845033)">
                            <path d="M132.608441,75.1995105 L136.547265,72.2691401 C136.547265,72.2691401 141.502559,69.3387698 142.174156,68.998029 C142.854828,68.6618315 149.271298,67.1989179 149.271298,67.1989179 L154.448946,66.7445969 C154.448946,66.7445969 154.448946,67.6486957 153.886256,68.2120537 C153.323567,68.7754117 148.14592,69.3387698 148.14592,69.3387698 L146.004072,71.0288438 C146.004072,71.0288438 145.332475,75.6492883 144.992139,76.3262265 C144.651803,77.0031648 142.174156,78.9203994 141.611467,78.9203994 C141.048777,78.9203994 137.563735,78.0163006 137.563735,78.0163006 L135.535332,78.9203994 L132.608441,75.1995105" id="Fill-117" fill="#F8B783"></path>
                            <path d="M37.9269287,0.263806789 C37.9269287,0.263806789 21.940206,2.96701667 20.3655842,16.719313 C19.0133153,30.6942265 29.3731472,29.5675105 30.947769,36.5549673 C32.5223909,43.5424241 13.1595337,52.7878562 23.7417186,64.7319549 C34.3239035,76.6805969 62.9212144,78.4842512 70.8033993,68.1166463 C78.6810463,57.7444981 76.2033993,49.2714117 71.252643,42.5111154 C66.2973489,35.7508191 70.5765085,27.8592636 69.4511304,20.6446463 C68.3257522,13.430029 69.6780211,-2.2167858 37.9269287,0.263806789" id="Fill-118" fill="#1A1D24"></path>
                            <path d="M53.7720378,129.943309 L64.4958363,127.855313 L71.9287774,142.734325 C71.9287774,142.734325 96.4511304,155.282671 106.824576,161.756745 C108.694156,162.92435 109.946593,164.837041 110.318693,167.004152 L124.520392,250.397267 C128.351997,248.284591 139.366119,242.335158 142.70508,241.876251 C145.05113,242.616794 117.070962,264.496893 117.070962,264.496893 L112.977853,253.893041 L113.314722,253.604645 L113.132139,253.647708 L87.1972451,174.446574 C76.3145599,197.208165 44.7578076,254.974916 43.9115145,256.5236 L43.5814029,257.750584 C43.4546625,258.221668 43.722997,258.708672 44.1889327,258.853197 C54.9818469,262.20097 61.4225795,264.71068 63.5111304,266.382325 C64.2041057,267.80798 53.6281162,266.9135 31.783162,263.698886 L31.7831582,263.698911 C30.7913588,263.552962 30.1056617,262.630635 30.2516108,261.638835 C30.2736301,261.489203 30.3142644,261.34291 30.3725689,261.203356 L33.857589,252.861872 L33.8867931,252.871735 L68.5481052,169.107659 C68.5481052,169.107659 21.940206,174.523165 18.5640716,163.019757 C15.1879371,151.525436 23.5791465,125.966528 23.5791465,125.966528 L54.3628951,127.182918 L53.7720378,129.943309 Z" id="Combined-Shape" fill="#FF8F34"></path>
                            <path d="M87.7582829,110.47431 C83.8053108,107.256368 77.0144305,95.4767328 70.937378,83.3939427 C70.6340999,84.2860487 70.2132589,85.1373396 69.6507942,85.926029 C66.8600379,89.8377327 62.2178531,116.69719 68.9746598,134.279412 C69.9865926,137.65956 47.6968447,136.987165 47.6968447,136.987165 L42.5418867,136.987165 C42.5418867,136.987165 19.8028951,137.436943 20.8148279,134.052251 C23.1797206,127.898446 24.2038134,120.635998 24.416313,113.62709 C15.4577309,115.693378 7.2320712,117.067996 3.59381946,116.256498 C0.664067847,115.979922 -0.301018337,113.523772 0.0787754685,111.114489 C-1.04515846,102.601084 11.8574872,67.2947546 18.11029,54.3507204 C18.6817609,53.1698023 19.5925384,52.2819673 20.6540834,51.728857 C22.6591335,50.3316752 39.5060884,46.3637574 39.5060884,46.3637574 L50.7371808,46.3637574 C50.7371808,46.3637574 67.962727,50.4208438 69.6507942,51.7747204 C69.7775711,51.8763989 69.8738649,52.0314542 69.9436833,52.231869 C70.7204455,52.7555916 71.5145528,53.4239475 72.3190295,54.2643994 C78.0164158,60.2246923 88.3730728,86.6347312 92.9827498,98.8756006 C101.83018,92.3135974 120.031056,79.3551633 133.702055,73.2141278 L136.669786,79.1702759 C136.669786,79.1702759 101.905584,109.632498 91.9314665,111.567906 C90.121373,112.16432 88.7011942,111.592571 87.7582829,110.47431 Z M24.0710708,101.962487 C23.4475149,94.8735133 22.1759667,89.1230186 21.0258308,86.6914601 C18.2576765,93.1327641 15.3377742,99.4704419 13.0808896,104.256618 C16.2555439,103.550174 20.0118229,102.751583 24.0710708,101.962487 Z" id="Combined-Shape" fill="#13263D"></path>
                            <path d="M44.8788615,50.402671 C35.4129791,50.402671 27.7395337,42.7201031 27.7395337,33.2429673 L27.7395337,18.8727944 C27.7395337,9.39565864 35.4129791,1.70854753 44.8788615,1.70854753 C54.3492816,1.70854753 62.022727,9.39565864 62.022727,18.8727944 L62.022727,33.2429673 C62.022727,42.7201031 54.3492816,50.402671 44.8788615,50.402671" id="Fill-131" fill="#F8B783"></path>
                            <path d="M58.1025047,7.02410309 C58.1025047,7.02410309 53.0781821,11.0673222 54.6629401,17.0017243 C56.2512515,22.9325036 59.953758,31.8304839 56.2512515,40.1886437 C57.0436305,44.7753062 65.2445758,41.0001859 65.2445758,41.0001859 L63.1268273,24.2802432 L61.5420693,10.2594029 C61.5420693,10.2594029 60.746137,7.02410309 58.1025047,7.02410309" id="Fill-137" fill="#1A1D24"></path>
                            <path d="M56.2233993,103.512794 C56.2233993,103.512794 59.7674329,107.565338 65.680206,105.202869 C67.2003741,105.030227 68.2123069,104.353288 68.2123069,104.353288 L71.252643,106.043362 C71.252643,106.043362 72.0966766,108.246819 72.7728111,107.906078 C73.4489455,107.565338 72.7728111,105.370967 72.6003741,104.353288 C72.4324749,103.340152 69.0563405,99.6192636 67.8719707,98.265387 C66.6921388,96.9160537 56.0555001,97.9291895 56.0555001,97.9291895 C56.0555001,97.9291895 51.9986934,100.468844 56.2233993,103.512794" id="Fill-134" fill="#F8B783"></path>
                            <path d="M27.100302,21.5804673 C25.921073,20.9113238 26.0327408,12.7564864 30.7962193,7.11100547 C33.7936982,3.55851548 40.7127642,0.821503498 46.2246892,1.13801021 C57.2028689,2.49894404 57.9840716,7.58997831 57.9840716,7.58997831 L54.1415243,10.0374642 C54.1415243,10.0374642 40.8221047,22.6706777 27.100302,21.5804673 Z" id="Fill-136" fill="#1A1D24"></path>
                        </g>
                        <path d="M132.296482,179.193481 L102.202521,179.193481 L102.202521,167.921778 L438.772269,167.921778 L438.772269,179.193481 L406.427552,179.193481 L449.953445,339.246222 L442.193782,339.246222 L388.353152,179.193481 L150.370882,179.193481 L96.5302521,339.246222 L88.7705882,339.246222 L132.296482,179.193481 Z" id="Table" fill="#D5D7DE"></path>
                        <g id="Man" transform="translate(7.454199, 0.040029)">
                            <path d="M140.965528,79.058837 L142.301431,77.1583903 L143.399582,74.2870816 L145.509666,71.9155261 L146.272019,73.7782421 L145.087649,76.3996742 L145.000237,77.1258219 L145.16933,77.04481 C145.16933,77.04481 155.978406,74.7913779 156.205296,75.6954767 C156.427649,76.5950323 154.626137,78.1715261 154.626137,78.1715261 C154.626137,78.1715261 152.602271,83.8096495 151.699246,84.4865878 C150.800759,85.1635261 141.793196,85.3861434 141.793196,85.3861434 L138.639414,88.3165137 L136.166305,84.9363656 L139.991683,79.5254026 L140.965528,79.058837 Z" id="Combined-Shape" fill="#F8B783"></path>
                            <path d="M48.9858007,57.3772545 C39.5199183,57.3772545 31.8464729,49.6901434 31.8464729,40.2130076 L31.8464729,25.8428347 C31.8464729,16.3656989 39.5199183,8.68313103 48.9858007,8.68313103 C58.4562208,8.68313103 66.134204,16.3656989 66.134204,25.8428347 L66.134204,40.2130076 C66.134204,49.6901434 58.4562208,57.3772545 48.9858007,57.3772545" id="Fill-141" fill="#F8B783"></path>
                            <path d="M24.5859687,25.5475261 C24.5859687,25.5475261 25.7113469,48.0636742 38.7711788,56.6139952 C40.5726914,57.2409582 48.0056326,57.0319705 49.8026074,56.1960199 C51.6086578,55.3646125 56.3325234,49.7310323 59.0370612,41.3942421 C60.8385738,38.0595261 60.1624393,20.1274767 60.1624393,20.1274767 C60.1624393,20.1274767 65.7893301,24.507131 68.7162208,18.6645631 C71.6476494,12.8310816 66.2385738,1.98643967 58.5878175,0.319081644 C50.9279855,-1.34827638 50.9279855,4.071773 46.6533637,3.86732856 C42.374204,3.6583409 21.659078,5.53468658 24.5859687,25.5475261" id="Fill-155" fill="#1A1D24"></path>
                            <path d="M61.7370612,34.0387853 C61.7370612,34.0387853 59.0370612,25.4748347 55.8832797,28.6323656 C52.734036,31.7853532 57.6847923,42.3801187 59.9355486,41.2534026 C62.1908427,40.1266866 61.7370612,34.0387853 61.7370612,34.0387853" id="Fill-156" fill="#F8B783"></path>
                            <path d="M49.445425,175.545597 L44.4026074,226.039378 L20.9829435,326.135378 L20.609082,327.406846 C20.1087206,329.108528 20.9112893,330.922629 22.5070581,331.696971 L30.6625764,335.654411 C31.1135225,335.873231 31.3016977,336.416184 31.0828775,336.86713 C30.9302489,337.181668 30.610519,337.38057 30.2609117,337.378468 L10.1828928,337.257773 C7.68741782,337.242772 5.67235528,335.21556 5.67235528,332.72004 L5.67235528,328.842522 L5.67235528,325.877488 L5.71279162,325.878169 L20.9829435,228.747131 L17.3844561,151.199082 L52.5071452,144.888563 L51.7759928,152.209599 L82.7925234,149.509008 L93.5970612,238.778538 L108.009162,327.143971 L107.81037,330.720773 L118.387172,335.673047 C118.84111,335.88559 119.0368,336.425881 118.824257,336.879819 C118.674913,337.198779 118.35452,337.402538 118.002328,337.402538 L96.3197502,337.402538 C94.8160506,337.402538 93.5970612,336.183549 93.5970612,334.679849 L93.5970612,327.143971 L72.8819351,240.57765 L49.445425,175.545597 Z" id="Combined-Shape" fill="#13263D"></path>
                            <path d="M106.162892,111.406358 L135.125738,82.2513286 L141.124729,88.6072792 L108.872349,124.603738 C107.742433,126.093911 103.050747,126.511483 101.294612,125.889063 L101.355381,125.81282 C99.3619562,125.506309 97.5205838,124.284298 96.5194141,122.304267 L82.4018652,94.4021918 L84.0268091,155.710489 L16.4814309,155.710489 L20.9829435,125.952464 L19.9230963,117.781819 L10.9634477,129.087279 L10.6889878,128.961456 C9.54706708,129.905699 8.08874711,130.459329 6.53000234,130.459329 C2.45050654,130.459329 -0.626132111,126.761156 0.108993939,122.744958 L11.2901704,61.7341928 C11.8256326,58.7992792 14.2851284,56.6003656 17.2573973,56.3913779 L18.6718276,56.2948249 C18.9086442,56.2601608 19.1497987,56.2375969 19.3947082,56.2278224 L19.9968264,56.2043766 L22.6483217,56.0233779 C23.0713078,55.9941718 23.4851284,56.0052447 23.8867469,56.0529078 L74.4656326,54.0834273 C75.1041318,54.0580721 75.7252397,54.1219858 76.3170598,54.2640049 C79.454684,53.1982945 83.1073779,54.6634638 84.4624393,57.995131 L106.162892,111.406358 Z" id="Combined-Shape" fill="#FF8F34"></path>
                        </g>
                    </g>
                </g>
            </g>
        </g>
    </g>
</svg>