<?xml version="1.0" encoding="UTF-8"?>
<svg width="1440px" height="500px" viewBox="0 0 1440 500" version="1.1" xmlns="http://www.w3.org/2000/svg" xmlns:xlink="http://www.w3.org/1999/xlink">
    <!-- Generator: Sketch 52.4 (67378) - http://www.bohemiancoding.com/sketch -->
    <title>Advantages 2</title>
    <desc>Created with Sketch.</desc>
    <defs>
        <linearGradient x1="50%" y1="0%" x2="50%" y2="100%" id="linearGradient-1">
            <stop stop-color="#1A3352" offset="0%"></stop>
            <stop stop-color="#224570" offset="100%"></stop>
        </linearGradient>
        <rect id="path-2" x="0" y="0" width="1440" height="500"></rect>
    </defs>
    <g id="Page-1" stroke="none" stroke-width="1" fill="none" fill-rule="evenodd">
        <g id="Advantages-2">
            <g id="Advantages">
                <mask id="mask-3" fill="white">
                    <use xlink:href="#path-2"></use>
                </mask>
                <use id="Mask" fill="url(#linearGradient-1)" xlink:href="#path-2"></use>
                <path d="M-160.324363,704.859521 C0.321911707,835.448591 27.3659619,974.194548 -79.1922125,1121.09739 C-210.543785,1297.97733 -453.662517,1362.22585 -659.455662,1262.71859 L-661.179291,1261.88516 C-661.676887,1261.64456 -662.174052,1261.40307 -662.670785,1261.16071 C-894.009475,1148.2868 -989.664718,870.021809 -876.322751,639.638457 L-619.787815,118.195433 L-475.63497,-174.815323 L-302.387454,-526.965054 C-218.199392,-698.089029 -42.6070976,-794.943619 137.142831,-787.611711 C310.780474,-788.267212 477.900497,-692.213702 559.387454,-526.580098 L1133.32275,640.023413 C1246.66472,870.406765 1151.00947,1148.67176 919.670785,1261.54566 C919.174052,1261.78803 918.676887,1262.02951 918.179291,1262.27012 L916.455662,1263.10354 C686.538868,1374.27533 410.032769,1281.0493 294.847539,1054.71845 C235.146036,929.678868 274.962217,811.655687 414.296082,700.648911 L414.250001,700.648911 C519.03991,616.35131 586.057465,487.34113 586.057465,342.742802 C586.057465,88.7777373 379.324376,-117.101626 124.306186,-117.101626 C-130.712004,-117.101626 -337.445094,88.7777373 -337.445094,342.742802 C-337.445094,489.770387 -268.156829,620.681661 -160.324363,704.859521 Z M125,585 C-8.65290945,585 -117,476.652909 -117,343 C-117,209.347091 -8.65290945,101 125,101 C258.652909,101 367,209.347091 367,343 C367,476.652909 258.652909,585 125,585 Z" id="Symbol" fill-opacity="0.0399093094" fill="#000000" mask="url(#mask-3)"></path>
            </g>
        </g>
    </g>
</svg>