<?xml version="1.0" encoding="UTF-8"?>
<svg width="66px" height="67px" viewBox="0 0 66 67" version="1.1" xmlns="http://www.w3.org/2000/svg" xmlns:xlink="http://www.w3.org/1999/xlink">
    <!-- Generator: Sketch 52.4 (67378) - http://www.bohemiancoding.com/sketch -->
    <title>Group 2</title>
    <desc>Created with Sketch.</desc>
    <g id="Page-1" stroke="none" stroke-width="1" fill="none" fill-rule="evenodd">
        <g id="Group-2">
            <rect id="Mask" fill="#FFFFFF" x="4.97379915e-14" y="-8.52651283e-14" width="65.9294872" height="66.1057692" rx="12.0000005"></rect>
            <path d="M37.9766482,15.4332069 C41.3533949,17.0015937 43.6371096,19.9730155 43.6371096,23.3733697 L21.3645316,23.3733697 C21.3645316,19.9721969 23.6482463,17.0007751 27.024993,15.4323883 L26.5761277,14.7619766 L26.1338273,14.1005693 L25.142549,12.6164955 C25.021101,12.4339536 25.0703367,12.187563 25.2525087,12.0664142 C25.4363219,11.9452653 25.6833208,11.9943797 25.8047688,12.1769216 L26.86908,13.769047 L27.316304,14.4378215 L27.7676311,15.1156004 C29.2053128,14.559789 30.807934,14.2479125 32.4991794,14.2479125 C34.192066,14.2479125 35.7946872,14.559789 37.2323689,15.1156004 L37.6861577,14.4378215 L38.1333818,13.769047 L39.1960518,12.1777401 C39.3183204,11.9943797 39.5644987,11.9452653 39.7491325,12.0672327 C39.9304839,12.1892002 39.9797196,12.4347722 39.8582716,12.6173141 L38.8661727,14.1013878 L38.4255135,14.7627952 L37.9766482,15.4332069 Z M27.7282425,20.1997603 C28.38718,20.1997603 28.9205664,19.666869 28.9205664,19.0095545 C28.9205664,18.35224 28.38718,17.8201672 27.7282425,17.8201672 C27.0676639,17.8201672 26.5342774,18.35224 26.5342774,19.0095545 C26.5342774,19.666869 27.0676639,20.1997603 27.7282425,20.1997603 Z M37.2725781,20.1997603 C37.9331567,20.1997603 38.4665432,19.666869 38.4665432,19.0095545 C38.4665432,18.35224 37.9331567,17.8201672 37.2725781,17.8201672 C36.6136406,17.8201672 36.0802541,18.35224 36.0802541,19.0095545 C36.0802541,19.666869 36.6136406,20.1997603 37.2725781,20.1997603 Z M21.5360358,24.9614023 L43.4656054,24.9614023 L43.6371096,24.9614023 L43.6371096,26.940713 L43.6371096,28.5557585 L43.6371096,42.4191191 C43.6371096,43.804964 42.5071509,44.9321397 41.1178843,44.9321397 L39.3002673,44.9321397 C39.3609913,45.1416945 39.3946357,45.3643465 39.3946357,45.5927285 L39.3946357,45.7253374 L39.3946357,46.5185351 L39.3946357,50.6195883 C39.3946357,51.9333987 38.3254009,53 37.0083466,53 C35.6912923,53 34.6220576,51.9333987 34.6220576,50.6195883 L34.6220576,46.5185351 L34.6220576,45.7253374 L34.6220576,45.5927285 C34.6220576,45.3635279 34.655702,45.1416945 34.716426,44.9321397 L30.2852152,44.9321397 C30.344298,45.1416945 30.3795836,45.3643465 30.3795836,45.5927285 L30.3795836,45.7253374 L30.3795836,46.5185351 L30.3795836,50.6195883 C30.3795836,51.9333987 29.3111695,53 27.9932946,53 C26.6754197,53 25.6061849,51.9333987 25.6061849,50.6195883 L25.6061849,46.5185351 L25.6061849,45.7253374 L25.6061849,45.5927285 C25.6061849,45.3635279 25.6406499,45.1416945 25.7013739,44.9321397 L23.8829363,44.9321397 C22.4936697,44.9321397 21.3645316,43.804964 21.3645316,42.4191191 L21.3645316,28.5557585 L21.3645316,26.940713 L21.3645316,24.9614023 L21.5360358,24.9614023 Z M17.386289,24.9614023 C18.7041639,24.9614023 19.7725781,26.0263664 19.7725781,27.341814 L19.7725781,37.5248682 C19.7725781,38.8386787 18.7033433,39.9052799 17.386289,39.9052799 C16.0684141,39.9052799 15,38.8386787 15,37.5248682 L15,27.3426326 C15,26.0263664 16.0684141,24.9614023 17.386289,24.9614023 Z M47.6153522,24.9614023 C48.9324065,24.9614023 50,26.0263664 50,27.341814 L50,37.5248682 C50,38.8386787 48.9324065,39.9052799 47.6153522,39.9052799 C46.2966567,39.9052799 45.2290631,38.8386787 45.2290631,37.5248682 L45.2290631,27.3426326 C45.2290631,26.0263664 46.2966567,24.9614023 47.6153522,24.9614023 Z" id="Android" fill="#A1D868" fill-rule="nonzero"></path>
        </g>
    </g>
</svg>