<?xml version="1.0" encoding="UTF-8"?>
<svg width="439px" height="323px" viewBox="0 0 439 323" version="1.1" xmlns="http://www.w3.org/2000/svg" xmlns:xlink="http://www.w3.org/1999/xlink">
    <!-- Generator: Sketch 52.4 (67378) - http://www.bohemiancoding.com/sketch -->
    <title>logo</title>
    <desc>Created with Sketch.</desc>
    <defs>
        <rect id="path-1" x="0" y="0" width="454" height="333"></rect>
    </defs>
    <g id="Page-1" stroke="none" stroke-width="1" fill="none" fill-rule="evenodd">
        <g id="logo" transform="translate(-8.000000, -10.000000)">
            <mask id="mask-2" fill="white">
                <use xlink:href="#path-1"></use>
            </mask>
            <g id="Mask"></g>
            <path d="M166.716535,323.799356 C200.524754,351.249203 206.21621,380.41363 183.790903,411.292636 C156.147792,448.472832 104.983138,461.977884 61.6737015,441.061438 L61.3109615,440.886251 C61.2062419,440.835677 61.1016128,440.784917 60.9970747,440.733972 C12.3115452,417.007854 -7.81922567,358.5165 16.0337394,310.089876 L70.0218517,200.482453 L100.359006,138.891536 L136.819172,64.8695954 C154.53666,28.8993033 191.490288,8.54045 229.318895,10.0816184 C265.861164,9.94383206 301.031791,30.1342982 318.180828,64.9505132 L438.966261,310.170794 C462.819226,358.597418 442.688455,417.088772 394.002925,440.81489 C393.898387,440.865834 393.793758,440.916594 393.689038,440.967169 L393.326298,441.142356 C344.940009,464.510687 286.748939,444.914557 262.508057,397.33977 C249.943798,371.056425 258.323165,346.24793 287.646159,322.914285 L287.636461,322.914285 C309.689634,305.194913 323.793566,278.076949 323.793566,247.682353 C323.793566,194.298848 280.286318,151.022966 226.617406,151.022966 C172.948495,151.022966 129.441246,194.298848 129.441246,247.682353 C129.441246,278.587579 144.023052,306.105154 166.716535,323.799356 Z M227,298 C198.833478,298 176,275.166522 176,247 C176,218.833478 198.833478,196 227,196 C255.166522,196 278,218.833478 278,247 C278,275.166522 255.166522,298 227,298 Z" fill="#FFFFFF" opacity="0.15469215" mask="url(#mask-2)"></path>
        </g>
    </g>
</svg>