<?xml version="1.0" encoding="UTF-8"?>
<svg width="66px" height="67px" viewBox="0 0 66 67" version="1.1" xmlns="http://www.w3.org/2000/svg" xmlns:xlink="http://www.w3.org/1999/xlink">
    <!-- Generator: Sketch 52.4 (67378) - http://www.bohemiancoding.com/sketch -->
    <title>Group</title>
    <desc>Created with Sketch.</desc>
    <defs>
        <linearGradient x1="50%" y1="0%" x2="50%" y2="100%" id="linearGradient-1">
            <stop stop-color="#1AC0FA" offset="0%"></stop>
            <stop stop-color="#1D78F2" offset="100%"></stop>
        </linearGradient>
    </defs>
    <g id="Page-1" stroke="none" stroke-width="1" fill="none" fill-rule="evenodd">
        <g id="Group">
            <rect id="Mask" fill="url(#linearGradient-1)" x="0" y="0" width="65.9294872" height="66.1057692" rx="12.0000005"></rect>
            <g id="Group-2" transform="translate(13.000000, 14.000000)" fill="#FFFFFF">
                <g id="Group">
                    <path d="M8.83568919,36.3088119 C8.27318919,37.3134917 7.24901351,37.8757162 6.19735135,37.8758416 C5.6817973,37.8758416 5.1597973,37.7407723 4.68218919,37.456462 C3.23027027,36.5921188 2.73101351,34.6707987 3.56922973,33.1736238 L4.16724324,32.1056106 L11.1890676,32.1056106 L8.83568919,36.3088119 Z" id="Path"></path>
                    <path d="M3.10135135,29.5973597 C1.4247973,29.5973597 0.0608108108,28.1908581 0.0608108108,26.4620462 C0.0608108108,24.7332343 1.4247973,23.3267327 3.10135135,23.3267327 L9.08245946,23.3267327 L17.2863243,8.67428383 L15.0629595,4.70322112 C14.2247432,3.2060462 14.7238784,1.28472607 16.1757973,0.420257426 L16.1759189,0.420257426 C17.6278378,-0.444085809 19.4910811,0.0708580858 20.3292973,1.56790759 L20.7972973,2.40378218 L21.2652973,1.568033 C22.1038784,0.0707326733 23.9671216,-0.443960396 25.4186757,0.420382838 C26.1220135,0.839135314 26.6251622,1.51523432 26.8353243,2.32414521 C27.0456081,3.13305611 26.9376081,3.97808581 26.5315135,4.70334653 L16.1042838,23.3267327 L22.6814595,23.3267327 L26.1924324,29.5973597 L3.10135135,29.5973597 Z" id="Path"></path>
                </g>
                <g id="Group" transform="translate(20.000000, 0.000000)">
                    <path d="M17.0175439,29.5973597 L14.6419883,29.5973597 L16.5674854,33.1734983 C17.3736842,34.6705479 16.8935673,36.591868 15.4974269,37.4563366 C15.0467836,37.7352541 14.5466667,37.8778482 14.04,37.8778482 C13.7859649,37.8778482 13.5305263,37.8421056 13.2784795,37.7696172 C12.5239766,37.5527789 11.8934503,37.0339472 11.502924,36.3085611 L1.35040936,17.4530363 L4.72666667,11.1824092 L11.265731,23.3267327 L17.0175439,23.3267327 C18.6298246,23.3267327 19.9415205,24.7332343 19.9415205,26.4620462 C19.9415205,28.1908581 18.6298246,29.5973597 17.0175439,29.5973597 Z" id="Path"></path>
                    <polygon id="Path" points="0 23.3267327 0 29.5973597 5.18830409 29.5973597 1.81204678 23.3267327"></polygon>
                    <path d="M5.80654971,2.3240198 C5.60432749,1.51510891 5.1205848,0.838884488 4.44421053,0.420257426 C3.04818713,-0.444085809 1.25637427,0.0704818482 0.45005848,1.56790759 L0,2.40365677 L0,14.9449109 L5.51438596,4.70322112 C5.90491228,3.9779604 6.00877193,3.13305611 5.80654971,2.3240198 Z" id="Path"></path>
                </g>
            </g>
        </g>
    </g>
</svg>