<?xml version="1.0" encoding="UTF-8"?>
<svg width="66px" height="66px" viewBox="0 0 66 66" version="1.1" xmlns="http://www.w3.org/2000/svg" xmlns:xlink="http://www.w3.org/1999/xlink">
    <!-- Generator: Sketch 52.4 (67378) - http://www.bohemiancoding.com/sketch -->
    <title>Group</title>
    <desc>Created with Sketch.</desc>
    <defs>
        <linearGradient x1="50%" y1="0%" x2="50%" y2="100%" id="linearGradient-1">
            <stop stop-color="#FF8E34" offset="0%"></stop>
            <stop stop-color="#FF7734" offset="100%"></stop>
        </linearGradient>
    </defs>
    <g id="Page-1" stroke="none" stroke-width="1" fill="none" fill-rule="evenodd">
        <g id="Group">
            <rect id="Rectangle" fill="url(#linearGradient-1)" x="0" y="0" width="66" height="66" rx="12"></rect>
            <g id="02" transform="translate(15.000000, 16.000000)" fill="#FFFFFF" fill-rule="nonzero">
                <path d="M8.38452259,32.3280205 L8.38464965,32.3281905 C7.50946001,33.3525436 6.21238864,34 4.76475111,34 C2.13257507,34 1.77635684e-15,31.8600023 1.77635684e-15,29.2186657 C1.77635684e-15,27.7659901 0.645210945,26.4644047 1.66601056,25.5878267 L17.3964686,12.0521882 L21.8715236,16.5411173 L8.38452259,32.3280205 Z M32.9922429,13.2294589 L32.9922768,13.2297904 C33.7218556,13.0670551 34.4795994,13.347645 35.0090163,13.8789044 L36,14.8750369 L29.6469974,21.2501493 L28.6560137,20.2573743 C28.1266137,19.7261149 27.8470181,18.964119 28.009151,18.2319586 C28.1183464,17.7339348 28.0571331,17.1379043 27.7725694,16.493763 C27.4102365,15.6703109 26.7418582,14.9995981 25.9212621,14.6343552 C24.8210914,14.144619 23.8614916,14.310627 23.2973449,14.8734219 L23.2526748,14.9248861 L19.0088691,10.666311 L19.0634668,10.6198237 C20.6699209,9.0044552 20.6682691,6.38801559 19.058503,4.77597068 C17.4487368,3.16392576 14.8413799,3.16558329 13.2349173,4.78095176 L11.1172497,2.64095405 C14.6262248,-0.880318016 20.3141951,-0.880318016 23.8232549,2.64095405 L28.525324,7.36236226 C29.0547239,7.89362163 29.3343238,8.65727508 29.1705349,9.38943549 C29.0596877,9.88750177 29.120901,10.4851898 29.4054647,11.1309887 C29.7694494,11.9560982 30.4378276,12.6268153 31.2600756,12.992054 C31.901983,13.2776038 32.495904,13.3406919 32.9922429,13.2294589 Z" id="Build"></path>
            </g>
        </g>
    </g>
</svg>