<?xml version="1.0" encoding="UTF-8"?>
<svg width="66px" height="66px" viewBox="0 0 66 66" version="1.1" xmlns="http://www.w3.org/2000/svg" xmlns:xlink="http://www.w3.org/1999/xlink">
    <!-- Generator: Sketch 52.4 (67378) - http://www.bohemiancoding.com/sketch -->
    <title>enterprise</title>
    <desc>Created with Sketch.</desc>
    <defs>
        <linearGradient x1="50%" y1="0%" x2="50%" y2="100%" id="linearGradient-1">
            <stop stop-color="#FF8E34" offset="0%"></stop>
            <stop stop-color="#FF7734" offset="100%"></stop>
        </linearGradient>
    </defs>
    <g id="Page-1" stroke="none" stroke-width="1" fill="none" fill-rule="evenodd">
        <g id="enterprise">
            <rect id="Rectangle" fill="url(#linearGradient-1)" x="0" y="0" width="66" height="66" rx="12"></rect>
            <path d="M35.2448378,41.1017569 L32.7590214,41.1242346 L32.7355841,37.7223857 L33.9997359,37.7223857 L35.2448378,37.7223857 L35.2448378,41.1017569 Z M29.7590093,37.6219898 C26.009041,37.4526455 22.2736976,37.0360502 18.5766039,36.3751465 C18.4008242,36.3481725 18.2235782,36.3991243 18.0888081,36.5160168 C17.9540455,36.6329093 17.8764061,36.8052499 17.8749436,36.9850984 L17.8749436,46.3767061 C17.8749436,48.9228361 19.8861641,50.989258 22.3749055,51 L45.6247087,51 C48.1134502,50.9895096 50.1246706,48.9229125 50.1246706,46.3767061 L50.1246706,36.9850984 C50.1246706,36.802269 50.0441063,36.6284283 49.9064112,36.5115281 C49.7701824,36.3931394 49.5885414,36.3436838 49.4127654,36.3751542 C45.7140592,37.0345617 41.9788283,37.4496646 38.2303601,37.6190051 L38.2303601,37.6459791 L38.2303601,41.1212576 C38.2303601,41.9290202 37.9168852,42.7037895 37.35733,43.274767 C36.7992222,43.8472407 36.0419161,44.1679289 35.2523603,44.1679289 L32.7357941,44.1679289 C31.092258,44.1679289 29.7592568,42.8041892 29.7592568,41.1212576 L29.7592568,37.6489715 L29.7592568,37.6219975 L29.7590093,37.6219898 Z M16,31.7265309 L16,27.2336748 C16,25.1970617 17.6127863,23.5470852 19.6034952,23.5470852 L26.1059402,23.5470852 L26.1059402,20.7192061 C26.1059402,18.1131117 28.1713477,16 30.7187762,16 L37.2857206,16 C39.833074,16 41.8970565,18.113035 41.8970565,20.7192061 L41.8970565,23.5470852 L48.3965015,23.5470852 C50.3872097,23.5470852 51.999996,25.1970617 51.999996,27.2336748 L51.999996,31.7265309 C52.0014585,32.3124705 51.6000994,32.8190342 51.0405291,32.938923 C45.4302016,34.0943439 39.721625,34.6698101 34.0002984,34.6533518 C28.2785968,34.6698369 22.5703951,34.0943823 16.9600654,32.938923 C16.4004951,32.8190342 15.999136,32.3125089 16.0005985,31.7265309 L16,31.7265309 Z M29.9495077,23.5472386 L38.0501891,23.5472386 L38.0501891,20.7238482 C38.0501891,20.5200373 37.9710873,20.3252036 37.8304635,20.1813371 C37.6898396,20.0374705 37.4994125,19.9565447 37.3001804,19.9565447 L30.7144862,19.9565447 C30.3013897,19.9565447 29.9644925,20.2997258 29.9644925,20.7238329 L29.9495077,23.5472386 Z" id="Enterprise" fill="#FFFFFF" fill-rule="nonzero"></path>
        </g>
    </g>
</svg>