<?xml version="1.0" encoding="UTF-8"?>
<svg width="66px" height="66px" viewBox="0 0 66 66" version="1.1" xmlns="http://www.w3.org/2000/svg" xmlns:xlink="http://www.w3.org/1999/xlink">
    <!-- Generator: Sketch 52.4 (67378) - http://www.bohemiancoding.com/sketch -->
    <title>Group 2</title>
    <desc>Created with Sketch.</desc>
    <g id="Page-1" stroke="none" stroke-width="1" fill="none" fill-rule="evenodd">
        <g id="Group-2">
            <g id="Group" fill="#000000">
                <rect id="Rectangle" x="0" y="0" width="66" height="66" rx="12"></rect>
            </g>
            <g id="Group-3" transform="translate(13.000000, 11.000000)">
                <circle id="Oval" fill="#000000" cx="21" cy="21.5" r="21"></circle>
                <path d="M38.7594416,11.4196177 C36.9018623,8.21419799 34.3821746,5.67646273 31.1997153,3.80583948 C28.0167824,1.93512081 24.5419685,1 20.7728105,1 C17.0041262,1 13.5281755,1.93540704 10.3459057,3.80583948 C7.16316225,5.67636732 4.64356929,8.21419799 2.78598999,11.4196177 C0.92869491,14.624942 -2.84217094e-14,18.125181 -2.84217094e-14,21.9202391 C-2.84217094e-14,26.478965 1.32061686,30.5782881 3.96251372,34.2192579 C6.60412638,37.8605139 10.0166989,40.3801212 14.199947,41.7783658 C14.6868889,41.8693876 15.0473586,41.805367 15.2817349,41.5879259 C15.516206,41.3701986 15.6332994,41.0975146 15.6332994,40.771019 C15.6332994,40.7165395 15.6286573,40.2264144 15.6196574,39.3000714 C15.6103733,38.3737284 15.6060155,37.5655993 15.6060155,36.8760658 L14.9838856,36.9844524 C14.5872269,37.0576324 14.0868324,37.0886409 13.4827023,37.0798631 C12.8788564,37.0713716 12.2519897,37.0076372 11.6029549,36.889137 C10.9536358,36.7716864 10.3496951,36.4992887 9.79065927,36.0725164 C9.23190761,35.6457441 8.83524887,35.0871141 8.6007778,34.3974852 L8.33030713,33.7706365 C8.15002493,33.3533099 7.86619652,32.889709 7.47844295,32.3815513 C7.09068937,31.8729166 6.69857796,31.5281021 6.30191922,31.3465355 L6.11254238,31.2100027 C5.98635432,31.1192671 5.86926088,31.0098309 5.76097788,30.8828392 C5.65278961,30.7558475 5.57179052,30.6287604 5.51769638,30.5014824 C5.46350751,30.3741091 5.50841228,30.2696343 5.65288435,30.1876765 C5.79735642,30.1057186 6.05844825,30.0659323 6.43729666,30.0659323 L6.97804852,30.1473177 C7.33870766,30.2201161 7.78481848,30.4375572 8.31694939,30.8009768 C8.84879609,31.1641101 9.28600174,31.6362025 9.62866108,32.2170632 C10.0436038,32.9618396 10.5435246,33.5293427 11.1298443,33.9198589 C11.7156904,34.3103752 12.3063681,34.5052993 12.9013088,34.5052993 C13.4962495,34.5052993 14.0100964,34.4598838 14.443039,34.3695298 C14.8755079,34.2786988 15.2812612,34.142166 15.6601096,33.9606948 C15.822392,32.7434443 16.2642397,31.8083235 16.9852738,31.1546645 C15.95758,31.0458962 15.0336219,30.8820759 14.2129258,30.6642532 C13.3927033,30.4461442 12.5451023,30.0921703 11.6706909,29.6013774 C10.795806,29.1112523 10.0700351,28.5026271 9.49318891,27.7765513 C8.91624797,27.0500938 8.44275851,26.0963679 8.07338368,24.9162323 C7.70381938,23.7356196 7.51898986,22.3737265 7.51898986,20.8301713 C7.51898986,18.6323845 8.23140297,16.7621429 9.65594499,15.2183969 C8.98862611,13.5660735 9.05162541,11.7137691 9.84513235,9.66167455 C10.3680739,9.49804511 11.143581,9.62083875 12.1712748,10.0292922 C13.1991581,10.4379365 13.9517392,10.7879985 14.429776,11.078238 C14.9078128,11.3683821 15.2908295,11.6142556 15.5793947,11.8136641 C17.2566918,11.3416671 18.9876094,11.1056209 20.7726211,11.1056209 C22.5576327,11.1056209 24.2889292,11.3416671 25.9663211,11.8136641 L26.9941096,11.1601959 C27.6969544,10.7241687 28.5269346,10.3245885 29.4820608,9.96135973 C30.4377554,9.59832181 31.1685473,9.49833134 31.6736785,9.66196078 C32.4848063,11.7141507 32.5570897,13.5663597 31.8895813,15.2186831 C33.3140286,16.7624292 34.0267259,18.6331478 34.0267259,20.8304575 C34.0267259,22.3740127 33.8412333,23.7401993 33.4722374,24.929876 C33.1027678,26.1197435 32.6252047,27.0725153 32.0393586,27.790195 C31.4528494,28.5077793 30.7224365,29.111634 29.8480251,29.6016636 C28.9734244,30.0920749 28.1255391,30.4460488 27.3053167,30.6641578 C26.4847153,30.8822667 25.5607572,31.0461824 24.5330633,31.1551415 C25.4703792,31.9720484 25.9391319,33.2615247 25.9391319,35.0229981 L25.9391319,40.7702557 C25.9391319,41.0967513 26.0518675,41.3693399 26.2775281,41.5871626 C26.5029045,41.8046037 26.8588269,41.8686243 27.3457688,41.7775071 C31.5295853,40.3794533 34.9421578,37.8597507 37.5836758,34.2184946 C40.2249095,30.5775248 41.546,26.4782017 41.546,21.9194759 C41.5450526,18.1248947 40.6158841,14.624942 38.7594416,11.4196177 Z" id="Path" fill="#FFFFFF"></path>
            </g>
        </g>
    </g>
</svg>