<?xml version="1.0" encoding="UTF-8"?>
<svg width="1440px" height="840px" viewBox="0 0 1440 840" version="1.1" xmlns="http://www.w3.org/2000/svg" xmlns:xlink="http://www.w3.org/1999/xlink">
    <!-- Generator: Sketch 52.4 (67378) - http://www.bohemiancoding.com/sketch -->
    <title>Call_To_Action</title>
    <desc>Created with Sketch.</desc>
    <defs>
        <rect id="path-1" x="0" y="0" width="1440" height="840"></rect>
    </defs>
    <g id="Page-1" stroke="none" stroke-width="1" fill="none" fill-rule="evenodd">
        <g id="Call_To_Action">
            <g id="Background">
                <mask id="mask-2" fill="white">
                    <use xlink:href="#path-1"></use>
                </mask>
                <use id="Mask" fill="#FF8F34" xlink:href="#path-1"></use>
                <path d="M-439.324363,530.859521 C-278.678088,661.448591 -251.634038,800.194548 -358.192213,947.097394 C-489.543785,1123.97733 -732.662517,1188.22585 -938.455662,1088.71859 L-940.179291,1087.88516 C-940.676887,1087.64456 -941.174052,1087.40307 -941.670785,1087.16071 C-1173.00947,974.2868 -1268.66472,696.021809 -1155.32275,465.638457 L-898.787815,-55.8045668 L-754.63497,-348.815323 L-581.387454,-700.965054 C-497.199392,-872.089029 -321.607098,-968.943619 -141.857169,-961.611711 C31.7804738,-962.267212 198.900497,-866.213702 280.387454,-700.580098 L854.322751,466.023413 C967.664718,696.406765 872.009475,974.671755 640.670785,1087.54566 C640.174052,1087.78803 639.676887,1088.02951 639.179291,1088.27012 L637.455662,1089.10354 C407.538868,1200.27533 131.032769,1107.0493 15.8475388,880.718453 C-43.8539638,755.678868 -4.03778282,637.655687 135.296082,526.648911 L135.250001,526.648911 C240.03991,442.35131 307.057465,313.34113 307.057465,168.742802 C307.057465,-85.2222627 100.324376,-291.101626 -154.693814,-291.101626 C-409.712004,-291.101626 -616.445094,-85.2222627 -616.445094,168.742802 C-616.445094,315.770387 -547.156829,446.681661 -439.324363,530.859521 Z M-154,411 C-287.652909,411 -396,302.652909 -396,169 C-396,35.3470905 -287.652909,-73 -154,-73 C-20.3470905,-73 88,35.3470905 88,169 C88,302.652909 -20.3470905,411 -154,411 Z" id="Symbol" fill="#FF9945" mask="url(#mask-2)"></path>
            </g>
        </g>
    </g>
</svg>