<?xml version="1.0" encoding="UTF-8"?>
<svg width="173px" height="41px" viewBox="0 0 173 41" version="1.1" xmlns="http://www.w3.org/2000/svg" xmlns:xlink="http://www.w3.org/1999/xlink">
    <!-- Generator: Sketch 52.4 (67378) - http://www.bohemiancoding.com/sketch -->
    <title>Group 2</title>
    <desc>Created with Sketch.</desc>
    <g id="Page-1" stroke="none" stroke-width="1" fill="none" fill-rule="evenodd">
        <g id="Group-2">
            <g id="Group">
                <path d="M106.342712,3.03222608 C108.350002,1.29796728 111.035843,0.242141795 114.53769,0 C114.773329,0 115.011149,0 115.246787,0 C115.547881,0 115.848974,0 116.150067,0 C116.451161,0 116.752254,0 117.053348,0 C117.310805,0 117.570443,0 117.8279,0 C119.911554,0.174516609 122.065026,0.281408032 123.50722,1.09727318 C123.064307,2.00912246 122.348665,2.650471 121.763933,3.41834408 C120.280284,2.52830937 117.099166,0.407932573 114.020595,1.16053545 C112.949313,1.42449182 111.432937,2.21199802 111.376209,3.41834408 C111.336936,4.2145761 111.79294,4.6879524 112.148579,5.22459098 C113.154406,6.28477938 114.188596,7.31660882 115.246787,8.32226078 C115.358061,8.53386217 115.587154,8.62766485 115.698427,8.83926624 C115.886065,9.08140803 116.102067,9.29737234 116.344251,9.48279623 C118.152993,10.9683689 119.058456,14.458701 117.378441,16.5158156 C116.811164,17.2073376 115.883883,17.8225087 115.052604,18.4507685 C112.748584,20.2002975 109.665649,21.8058503 105.954345,22 C105.480887,22 105.00961,22 104.536152,22 C102.33686,21.8342092 100.491027,21.3106594 98.7935579,20.6453148 C99.3150168,19.6854735 99.9281129,18.8128904 100.403753,17.805057 C101.915766,18.5445711 104.173967,20.1763014 106.473622,20.1937531 C108.053272,20.2046604 109.611103,19.5742191 110.3442,18.7103619 C110.647476,18.3504214 110.974751,17.70471 110.859114,16.8386713 C110.72384,15.8112048 109.770377,15.0411502 109.115827,14.3212692 C107.745633,12.8160635 106.44744,11.5399108 105.245249,9.80565196 C104.701971,9.02469013 103.990693,7.8532474 104.019056,6.83886961 C104.056148,5.4754586 105.144884,4.58760535 105.631434,3.7411998 C105.895436,3.53177987 106.133256,3.29618245 106.342712,3.03222608 Z M155.835492,3.03222608 C157.842782,1.29796728 160.528622,0.242141795 164.03047,0 C164.26829,0 164.503929,0 164.741749,0 C165.04066,0 165.341754,0 165.645029,0 C165.943941,0 166.247216,0 166.548309,0 C166.805766,0 167.063223,0 167.32068,0 C169.404333,0.174516609 171.557806,0.281408032 173,1.09727318 C172.559269,2.00912246 171.843627,2.650471 171.258894,3.41834408 C169.773064,2.52830937 166.589764,0.407932573 163.515557,1.16053545 C162.444275,1.42449182 160.925717,2.21199802 160.868989,3.41834408 C160.831898,4.2145761 161.28572,4.6879524 161.643541,5.22459098 C162.649368,6.28477938 163.681376,7.31660882 164.741749,8.32226078 C164.850841,8.53386217 165.082115,8.62766485 165.193389,8.83926624 C165.378845,9.08140803 165.594847,9.29737234 165.837031,9.48279623 C167.647955,10.9683689 168.553417,14.458701 166.869039,16.5158156 C166.303944,17.2073376 165.378845,17.8203272 164.547565,18.4507685 C162.243546,20.2002975 159.158429,21.8058503 155.449307,22 C154.975848,22 154.500208,22 154.02675,22 C151.82964,21.8342092 149.985988,21.3106594 148.286338,20.6453148 C148.809978,19.6854735 149.423074,18.8128904 149.898715,17.805057 C151.408546,18.5445711 153.666747,20.1763014 155.96422,20.1937531 C157.548234,20.2046604 159.106065,19.5742191 159.834798,18.7103619 C160.140256,18.3504214 160.469713,17.70471 160.354075,16.8386713 C160.21662,15.8112048 159.265339,15.0411502 158.610788,14.3212692 C157.238413,12.8160635 155.94022,11.5399108 154.74021,9.80565196 C154.196933,9.02469013 153.483472,7.8532474 153.511836,6.83886961 C153.551109,5.4754586 154.639846,4.58760535 155.124213,3.7411998 C155.388216,3.53177987 155.626036,3.29618245 155.835492,3.03222608 Z M52.5255325,5.22459098 C56.3437465,2.09638076 61.6696094,0.477739217 68.2042098,0.0632622707 C68.8500334,0.0632622707 69.495857,0.0632622707 70.1416806,0.0632622707 C73.0522506,0.119980169 75.4173614,0.724243927 77.7541083,1.35468518 C77.2413767,2.19454636 76.6151896,2.9231532 76.0151846,3.67793753 C74.3351704,2.60247893 72.6355198,1.55101636 70.0151341,1.4201289 C69.9016786,1.27178979 69.5198572,1.39395141 69.3016736,1.35468518 C69.2820371,1.35468518 69.2602187,1.35468518 69.2384003,1.35468518 C69.0202167,1.39395141 68.6405771,1.27178979 68.5293035,1.4201289 C65.2849125,1.57283094 63.2754411,2.96241943 61.5605176,4.64432325 C61.2092419,4.94100149 60.8885119,5.26385721 60.5917822,5.61289043 C60.5721456,5.74377789 60.4172352,5.73941497 60.3975987,5.87030243 C58.671766,7.82488845 56.9481152,9.77729301 56.5270207,13.0320278 C56.4179289,13.3134358 56.4179289,14.0420426 56.5270207,14.3212692 C56.6492036,16.4394646 59.7234112,17.085176 61.8812476,16.3238473 C63.650717,15.697769 65.3830952,13.6122955 66.4652861,11.9347546 C66.853653,11.3283094 67.4252942,10.4949926 67.4318397,9.93653941 C67.4383852,9.4020823 67.0325636,9.25156173 67.174383,8.83926624 C69.6289491,8.77164105 72.6966112,8.64729797 75.0442673,8.90252851 C74.3438978,10.3292018 73.4035263,11.6184432 72.7227933,13.0974715 C72.0398784,14.5808627 71.5533289,16.1776896 71.1104161,17.9359445 C68.8718518,17.9359445 66.6376512,17.9359445 64.3990869,17.9359445 C64.4252689,17.4014874 64.4819967,16.9019336 64.5278153,16.3871096 C61.7045188,18.0253842 55.3379198,19.9254338 52.2026207,16.9673773 C51.8884363,16.6357957 51.5415243,16.3391175 51.2338853,16.0009916 C50.3458778,14.7837382 49.6062353,13.4116014 49.4927798,11.4199306 C49.4927798,11.2039663 49.4927798,10.988002 49.4927798,10.7742191 C49.6411446,8.70837878 50.6207892,7.47367377 51.558979,6.19315816 C51.9080728,5.89647992 52.2288028,5.57362419 52.5255325,5.22459098 Z M18.9056135,1.48339118 C18.5216103,1.46375806 18.2008803,1.50956867 17.9368781,1.61209717 C16.4379564,3.92007933 15.0197626,6.30659395 13.6779332,8.77382251 C17.3892371,10.0041646 21.4910898,6.84759544 21.875093,3.7411998 C22.0474581,2.32325235 21.3972708,1.50520575 20.0030773,1.48339118 C19.7848936,1.37649975 19.1237972,1.37649975 18.9056135,1.48339118 Z M12.840108,10.3881011 C12.3644676,11.2083292 11.6968256,12.3448686 11.0990024,13.4835895 C10.4204512,14.7771939 9.55644398,16.2147744 9.87281028,17.9359445 C6.58041896,17.9359445 3.29020948,17.9359445 0,17.9359445 C2.34329243,14.072583 4.76731281,9.95180962 7.09751422,5.8048587 C7.96370332,4.26693109 9.50407991,2.34942985 8.70989141,0.645711453 C11.0597294,0.645711453 13.9441172,0.645711453 16.8394143,0.645711453 C19.6845291,0.645711453 22.6016446,0.425384234 24.971119,0.645711453 C26.5005864,0.787506197 28.0736906,1.57283094 28.909334,2.25780863 C29.9544337,3.11730293 30.5173475,4.82102132 29.3609741,6.06445216 C29.0075166,6.44184432 28.6409681,6.8083292 28.2635104,7.16172533 C25.745671,9.5460585 21.2925427,9.99980169 16.5819576,10.1939514 C16.3659558,10.2332176 15.9841344,10.111056 15.8728607,10.2572137 C15.722314,10.2572137 15.5717673,10.2572137 15.4212206,10.2572137 C14.9695804,10.2572137 14.5179402,10.2572137 14.0663001,10.2572137 C13.680115,10.3226574 13.0190186,10.1154189 12.840108,10.3881011 Z M38.585779,8.83926624 C37.1414032,11.2628656 35.7341186,13.7279127 34.3268341,16.1929598 C38.7123255,15.9966287 44.0861888,16.7863163 47.1691239,15.2898364 C46.8418484,16.1885969 46.486209,17.06118 46.1371152,17.9359445 C39.1683293,17.9359445 32.1995435,17.9359445 25.2285758,17.9359445 C27.6504143,13.6668319 30.3406187,9.01814576 32.9086403,4.57887952 C33.5588276,3.45979177 34.6737461,2.135647 33.7464656,0.645711453 C40.2439747,0.645711453 46.7393021,0.645711453 53.2346294,0.645711453 C52.9640817,1.2761527 52.6215333,1.83678731 52.2680758,2.38651463 C49.6542357,1.64263758 45.9145679,2.02875558 42.6505404,1.9349529 C41.5225309,3.53614279 40.5865231,5.33366386 39.6199695,7.09628161 C39.5566962,7.09846306 39.5676054,7.17481408 39.5545144,7.22498761 C39.8141529,7.18353991 40.2417929,7.31006445 40.3945214,7.16172533 C41.1254367,7.16172533 41.8563519,7.16172533 42.5872672,7.16172533 C43.8352776,7.16172533 45.0832881,7.16172533 46.3312986,7.16172533 C46.8047572,7.16172533 47.2782157,7.16172533 47.7494924,7.16172533 C47.847675,7.41477442 47.5029448,7.84888448 47.2978522,8.19355478 C47.0731231,8.57094695 46.8396665,8.97887952 46.5887553,9.22538423 C45.3865634,9.17957362 44.7538308,8.56440258 43.296364,8.77382251 C42.3079921,8.62330193 41.0381632,8.75200793 39.9406994,8.71056024 C39.5152413,8.77818542 38.8061445,8.56222112 38.585779,8.83926624 Z M89.8240279,8.51641051 C89.3745696,6.64253842 89.143295,4.55052058 88.5323807,2.83807635 C87.9607396,2.95151215 87.5920092,3.56013882 87.2407335,4.00079326 C86.0909057,5.44273674 84.818895,7.1377293 83.7563406,8.51641051 C85.338172,8.62112048 87.9912853,8.62330193 89.8240279,8.51641051 Z M82.1439634,10.5168071 C81.1381367,11.7667824 79.5912146,13.8042638 78.3366586,15.4185424 C77.7562901,16.1667824 76.7635545,16.9608329 77.3701051,17.9359445 C75.9060927,17.9359445 74.4442623,17.9359445 72.98025,17.9359445 C72.8689763,17.6959841 73.2027973,17.6 73.3031618,17.4843827 C78.118475,11.9325731 83.2239725,6.15389192 88.1461957,0.645711453 C90.5745797,0.645711453 93.0073274,0.645711453 95.4378933,0.645711453 C96.8757236,6.40912246 98.3637361,12.1289043 99.7601115,17.9359445 C96.8146322,17.9359445 93.866971,17.9359445 90.9214917,17.9359445 C90.8691276,17.7330689 91.3142223,17.3338622 91.37095,16.9019336 C91.4974966,15.9639068 91.0720384,14.7226574 90.8560366,13.6122955 C90.637853,12.4823004 90.4458514,11.3959346 90.210213,10.5168071 C90.210213,10.4513634 90.210213,10.3881011 90.210213,10.3226574 C87.5832818,10.4077343 84.618166,10.1525037 82.2072366,10.4513634 C82.1548726,10.4382747 82.148327,10.4775409 82.1439634,10.5168071 Z M121.763933,12.6459098 C122.080299,10.1197819 123.330491,8.10411502 124.539229,6.12771443 C124.949414,5.45800694 125.492691,4.69013386 126.022878,3.8699058 C126.657792,2.88824988 127.659255,1.74734755 127.24907,0.645711453 C130.281823,0.645711453 133.314575,0.645711453 136.347328,0.645711453 C136.419329,0.892216163 136.205509,1.16271691 136.092053,1.35468518 C134.473131,4.04224095 132.740752,6.8650471 131.056375,9.67694596 C130.233822,11.0490828 129.225814,12.0569162 128.92472,13.8718889 C128.819992,14.0464056 128.819992,14.6637581 128.92472,14.8382747 C129.481089,17.5541894 134.841861,15.4708974 135.703686,14.1925632 C135.943688,14.0049579 136.15969,13.791175 136.347328,13.5490332 C138.924077,10.7458602 141.276097,6.87813585 143.252841,3.16093208 C143.719754,2.28616758 144.317577,1.55974219 143.961938,0.645711453 C147.167056,0.645711453 150.372173,0.645711453 153.575109,0.645711453 C151.061634,4.62469013 148.631068,8.68874566 145.833953,12.3863163 C145.310313,12.8553297 144.817218,13.3483391 144.350305,13.8718889 C141.114641,16.1646009 137.468792,18.0428359 131.959655,18.0646505 C131.8702,17.9184928 131.510197,18.0406544 131.313831,17.9992067 C127.048341,17.6414477 122.394484,17.6698066 121.763933,13.6777392 C121.763933,13.3330689 121.763933,12.9883986 121.763933,12.6459098 Z" id="Combined-Shape" fill-opacity="0.311079545" fill="#1A3352"></path>
                <path d="M106.229174,31.4692308 L106.200304,31.4692308 L104.942674,35.7910769 L107.388467,35.7910769 L106.229174,31.4692308 Z M104.635033,29.1892308 L107.822413,29.1892308 L111.581772,40.2412308 L108.730902,40.2412308 L108.00375,37.8809231 L104.341826,37.8809231 L103.573174,40.2412308 L100.931609,40.2412308 L104.635033,29.1892308 Z M119.800576,33.7815385 L120.485326,33.7815385 C121.072641,33.7815385 121.496663,33.7224615 121.757391,33.6070769 C122.176902,33.4169231 122.387109,33.0467692 122.387109,32.4984615 C122.387109,31.6852308 121.75288,31.2790769 120.485326,31.2790769 L119.800576,31.2790769 L119.800576,33.7815385 Z M117.201413,29.1892308 L121.842196,29.1892308 C122.764217,29.1892308 123.504902,29.4163077 124.06425,29.8695385 C124.67863,30.3661538 124.986272,31.0676923 124.986272,31.9769231 C124.986272,33.5064615 124.36287,34.436 123.113359,34.7627692 L123.113359,34.7941538 C123.485957,34.9104615 123.766533,35.1790769 123.95238,35.6009231 C123.998391,35.6969231 124.18063,36.2406154 124.497293,37.232 L125.448185,40.2412308 L122.73625,40.2412308 L122.176902,38.2464615 C121.90625,37.2855385 121.650033,36.6523077 121.40825,36.3458462 C121.175489,36.0292308 120.820935,35.8704615 120.346391,35.8704615 L119.800576,35.8704615 L119.800576,40.2412308 L117.201413,40.2412308 L117.201413,29.1892308 Z M126.593946,29.1892308 L129.193109,29.1892308 L129.193109,38.0563077 L133.219511,38.0563077 L133.219511,40.2412308 L126.593946,40.2412308 L126.593946,29.1892308 Z M134.490674,40.2412308 L134.490674,29.1892308 L137.091641,29.1892308 L137.091641,40.2412308 L134.490674,40.2412308 Z M139.075522,29.1892308 L142.388304,29.1892308 L145.687554,36.6938462 L145.71462,36.6938462 L145.67312,29.1892308 L148.049446,29.1892308 L148.049446,40.2412308 L144.820565,40.2412308 L141.410348,32.6886154 L141.381478,32.6886154 L141.466283,40.2412308 L139.075522,40.2412308 L139.075522,29.1892308 Z M149.838457,29.1892308 L156.715728,29.1892308 L156.715728,31.2790769 L152.43762,31.2790769 L152.43762,33.5581538 L156.477554,33.5581538 L156.477554,35.6489231 L152.43762,35.6489231 L152.43762,38.1504615 L156.869098,38.1504615 L156.869098,40.2412308 L149.838457,40.2412308 L149.838457,29.1892308 Z M158.47587,37.5172308 C159.26888,38.0027692 160.162935,38.2464615 161.159837,38.2464615 C162.23162,38.2464615 162.766609,37.8864615 162.766609,37.1701538 C162.766609,36.6310769 162.366946,36.2092308 161.564913,35.9027692 C160.298261,35.4163077 159.561185,35.0996923 159.357293,34.952 C158.555261,34.3926154 158.155598,33.5378462 158.155598,32.3876923 C158.155598,31.1729231 158.620217,30.2766154 159.553065,29.6969231 C160.288337,29.2316923 161.239228,29 162.403935,29 C163.37287,29 164.211891,29.1356923 164.920098,29.4107692 L164.752293,31.6916923 C164.100924,31.3529231 163.378283,31.184 162.586174,31.184 C161.420565,31.184 160.838663,31.5273846 160.838663,32.2132308 C160.838663,32.6673846 161.239228,33.0310769 162.040359,33.3061538 C163.224913,33.7178462 163.959283,34.0233846 164.249783,34.2236923 C165.050011,34.784 165.451478,35.6378462 165.451478,36.7889231 C165.451478,39.2166154 164.02063,40.4304615 161.159837,40.4304615 C160.088054,40.4304615 159.11912,40.2716923 158.253033,39.956 L158.47587,37.5172308 Z M112.728435,40.2412308 L112.728435,29.1892308 L115.327598,29.1892308 L115.327598,40.2412308 L112.728435,40.2412308 Z" id="Combined-Shape" fill="#B2BCCA"></path>
                <path d="M4.97379915e-14,30.7353846 L97.5087609,30.7353846" id="Stroke-24" stroke="#B2BCCA" stroke-width="2"></path>
            </g>
        </g>
    </g>
</svg>