<?xml version="1.0" encoding="UTF-8"?>
<svg width="66px" height="67px" viewBox="0 0 66 67" version="1.1" xmlns="http://www.w3.org/2000/svg" xmlns:xlink="http://www.w3.org/1999/xlink">
    <!-- Generator: Sketch 52.4 (67378) - http://www.bohemiancoding.com/sketch -->
    <title>Group</title>
    <desc>Created with Sketch.</desc>
    <defs>
        <linearGradient x1="50%" y1="0%" x2="50%" y2="100%" id="linearGradient-1">
            <stop stop-color="#FF8E34" offset="0%"></stop>
            <stop stop-color="#FF7734" offset="100%"></stop>
        </linearGradient>
    </defs>
    <g id="Page-1" stroke="none" stroke-width="1" fill="none" fill-rule="evenodd">
        <g id="Group">
            <rect id="Mask" fill="url(#linearGradient-1)" x="0" y="0" width="65.9294872" height="66.1057692" rx="12.0000005"></rect>
            <path d="M50.6153846,30.1530856 C48.879782,28.8494239 46.7224123,28.0769231 44.3846154,28.0769231 C38.6493507,28.0769231 34,32.7262738 34,38.4615385 C34,41.4703827 35.2796311,44.1803531 37.3243667,46.0769231 L20.1538462,46.0769231 C17.8597403,46.0769231 16,44.2171828 16,41.9230769 L16,21.1538462 C16,18.8597403 17.8597403,17 20.1538462,17 L46.4615385,17 C48.7556443,17 50.6153846,18.8597403 50.6153846,21.1538462 L50.6153846,30.1530856 Z M21.5384615,27.7710615 L21.5384615,30.2633692 L32.6153846,30.2633692 L32.6153846,27.7710615 L21.5384615,27.7710615 Z M21.5384615,33.3095231 L21.5384615,35.8018308 L25.6923077,35.8018308 L25.6923077,33.3095231 L21.5384615,33.3095231 Z M21.5384615,22.5384615 L21.5384615,25.0307692 L42.3076923,25.0307692 L42.3076923,22.5384615 L21.5384615,22.5384615 Z M39.5384615,44.3362371 C37.8471492,42.9394486 36.7692308,40.8263742 36.7692308,38.4615385 C36.7692308,34.2556777 40.1787546,30.8461538 44.3846154,30.8461538 C48.5904762,30.8461538 52,34.2556777 52,38.4615385 C52,40.8263742 50.9220815,42.9394486 49.2307692,44.3362371 L49.2307692,53 L44.3846154,48.8461538 L39.5384615,53 L39.5384615,44.3362371 Z M44.3846154,43.3076923 C47.0610722,43.3076923 49.2307692,41.1379953 49.2307692,38.4615385 C49.2307692,35.7850816 47.0610722,33.6153846 44.3846154,33.6153846 C41.7081585,33.6153846 39.5384615,35.7850816 39.5384615,38.4615385 C39.5384615,41.1379953 41.7081585,43.3076923 44.3846154,43.3076923 Z" id="Combined-Shape" fill="#FFFFFF"></path>
        </g>
    </g>
</svg>