<?xml version="1.0" encoding="UTF-8"?>
<svg width="66px" height="67px" viewBox="0 0 66 67" version="1.1" xmlns="http://www.w3.org/2000/svg" xmlns:xlink="http://www.w3.org/1999/xlink">
    <!-- Generator: Sketch 52.4 (67378) - http://www.bohemiancoding.com/sketch -->
    <title>Group</title>
    <desc>Created with Sketch.</desc>
    <defs>
        <linearGradient x1="50%" y1="0%" x2="50%" y2="100%" id="linearGradient-1">
            <stop stop-color="#1AC0FA" offset="0%"></stop>
            <stop stop-color="#1D78F2" offset="100%"></stop>
        </linearGradient>
    </defs>
    <g id="Page-1" stroke="none" stroke-width="1" fill="none" fill-rule="evenodd">
        <g id="Group">
            <rect id="Mask" fill="url(#linearGradient-1)" x="0" y="0" width="65.9294872" height="66.1057692" rx="12.0000005"></rect>
            <g id="Group-2" transform="translate(8.000000, 8.000000)" fill="#FFFFFF">
                <g id="Group" transform="translate(0.000000, 1.000000)">
                    <polygon id="Path" points="25.9921417 23.6804121 25.6089198 23.279594 24.5 24.399239 23.3910802 23.279594 23.0078583 23.6804121 24.1030214 24.8000571 23.0078583 25.9058123 23.3910802 26.3066304 24.5 25.1869854 25.6089198 26.3066304 25.9921417 25.9058123 24.8833529 24.8000571"></polygon>
                    <path d="M27.0326711,0.154903625 C26.1975749,0.0719620596 25.3624786,0.0305574187 24.5,0.0305574187 C23.8018155,0.0305574187 23.103631,0.058204607 22.4192032,0.113498984 C9.92040374,1.17784959 0.0636737968,11.7933117 0.0636737968,24.6894683 C0.0636737968,27.8409832 0.652328877,30.8541299 1.72010963,33.6185842 C2.28138235,35.0837529 2.97956684,36.4797375 3.80090642,37.779023 C8.12692513,44.7178059 15.7931979,49.348247 24.5,49.348247 C33.3025749,49.348247 41.037369,44.6209746 45.3358743,37.5440881 C46.1435882,36.2171553 46.828016,34.8210384 47.3756631,33.356002 C48.3750535,30.6605996 48.9363262,27.7441519 48.9363262,24.6894683 C48.9363262,11.945305 39.3124118,1.42654201 27.0326711,0.154903625 Z M46.9376765,32.7616536 C46.7186176,33.397539 46.4585508,34.0195346 46.1847273,34.6276404 C45.9930508,35.0423482 45.8013743,35.4431663 45.5960722,35.8439844 C45.2948663,36.4383328 44.9662781,37.005034 44.6104385,37.5579778 C40.3803235,44.2618257 32.9467353,48.7263836 24.5137567,48.7263836 C16.1629251,48.7263836 8.81148396,44.3724145 4.55398663,37.7930451 C4.19801604,37.2401013 3.85580214,36.6596426 3.54097059,36.0790517 C3.32191176,35.6782336 3.11660963,35.2635257 2.92493316,34.8488179 C2.65110963,34.2544695 2.39104278,33.6324739 2.17198396,33.0104783 C1.21373262,30.4119072 0.693467914,27.6060483 0.693467914,24.6757109 C0.693467914,12.2495564 10.0846979,1.99337551 22.0769893,0.763274051 C22.7341658,0.694222222 23.4049679,0.652685298 24.0893957,0.638927846 C24.2263075,0.638927846 24.3768449,0.638927846 24.5137567,0.638927846 C24.8149626,0.638927846 25.1024118,0.638927846 25.4036176,0.652685298 C26.0744198,0.680332486 26.7314652,0.735626863 27.375016,0.804678692 C39.1620053,2.22831047 48.3204198,12.3876601 48.3204198,24.6757109 C48.3066631,27.509217 47.8275374,30.2321343 46.9376765,32.7616536 Z" id="Shape" fill-rule="nonzero"></path>
                </g>
                <path d="M27,4 L22,4 L22.0245121,2.52076562 C22.0490242,1.13210545 22.9803669,0 24.120121,0 L24.879879,0 C26.0073184,0 26.9509758,1.13210545 26.9754879,2.52076562 L27,4 Z" id="Path"></path>
                <path d="M47.7676231,35.8349133 L47.3890528,36.6273023 C46.9824354,37.49052 46.1129719,38 45.2155954,38 C44.8931196,38 44.556553,37.9293066 44.2480337,37.7877844 L43,37.2216956 L43.6450858,35.8632178 L44.8229344,33.3584778 L45.4680203,32 L46.6880068,32.6226977 C47.837674,33.2311755 48.3284331,34.6604821 47.7676231,35.8349133 Z" id="Path"></path>
                <path d="M47.998561,35.457798 C47.998561,35.4439139 47.998561,35.4298962 47.998561,35.416012 C47.998561,35.3742259 47.9849794,35.3323064 47.9849794,35.2905203 C47.9849794,35.2487343 47.9713979,35.2068148 47.9713979,35.1789129 C47.9713979,35.151011 47.9578164,35.1371268 47.9578164,35.109225 C47.9578164,35.0813231 47.9441042,35.0534212 47.9441042,35.0116352 C47.9441042,35.0116352 47.9441042,35.0116352 47.9441042,34.997751 C47.9305227,34.955965 47.9305227,34.9280631 47.9168106,34.8861435 C47.8895169,34.7885538 47.8622233,34.7048482 47.8213481,34.6071249 C47.8077665,34.5932407 47.8077665,34.5653388 47.7940544,34.5513212 C47.7804729,34.5095351 47.7667608,34.4816332 47.7394671,34.4537314 C47.6302925,34.2305164 47.4802427,34.0213192 47.3027686,33.853908 C47.2891871,33.8400238 47.2618934,33.812122 47.2345998,33.7981043 C47.2073061,33.7840866 47.1937246,33.7563182 47.1664309,33.7423005 C47.1391373,33.7284164 47.1255557,33.7005145 47.0982621,33.6864968 C47.0709684,33.6724791 47.0573869,33.6447108 47.0300932,33.6306931 C46.989218,33.588907 46.9346307,33.5610052 46.8800434,33.5331033 C46.8800434,33.5331033 46.8800434,33.5331033 46.8664619,33.5331033 C46.8118746,33.5052014 46.7709994,33.4772996 46.7164121,33.4493977 L45.5429154,32.8355567 L41.3946714,30.68738 C38.0242313,28.9575978 34.5037414,27.4231287 30.914952,26.1397763 L30.1917354,25.8747754 C30.1917354,25.8189716 30.1917354,25.7631679 30.1917354,25.7073642 C30.1917354,23.6706614 29.0728261,21.8990932 27.4353373,20.9784651 L27.5445119,20.0020333 C27.9539167,16.1658605 28.1176787,12.2461156 28.0220856,8.38204093 L27.912911,3.63912423 L27.8856173,2.2720663 C27.8856173,2.24416443 27.8856173,2.21626257 27.8856173,2.1883607 C27.8856173,2.17447652 27.8856173,2.14657465 27.8856173,2.13255697 C27.8856173,2.1046551 27.8856173,2.07675324 27.8720358,2.03496719 C27.8720358,2.00706532 27.8584542,1.96527928 27.8584542,1.93737741 L27.8584542,1.92349323 L27.8584542,1.90960905 C27.8584542,1.89572486 27.8584542,1.89572486 27.8584542,1.88170718 C27.8584542,1.83992113 27.8447421,1.81201927 27.8311606,1.77009972 C27.8311606,1.75621553 27.8311606,1.74219785 27.8175791,1.71429598 C27.8039975,1.67250994 27.8039975,1.64460807 27.7902854,1.6167062 C27.7765733,1.58880434 27.7767039,1.56090247 27.7629917,1.51911642 C27.7494102,1.49121456 27.7494102,1.47733038 27.7356981,1.44942851 C27.7356981,1.44942851 27.7356981,1.44942851 27.7356981,1.43554433 C27.721986,1.39375828 27.6948229,1.35183873 27.6811108,1.31005268 C27.6811108,1.31005268 27.6811108,1.2961685 27.6675292,1.2961685 C27.6539477,1.25438245 27.6266541,1.2124629 27.5993604,1.17067685 C27.5857789,1.14277499 27.5584852,1.11487312 27.5447731,1.07308707 C27.5311915,1.05920289 27.5174794,1.03130103 27.5038979,1.01728334 C27.4903164,1.00339916 27.4766042,0.975497294 27.4630227,0.96147961 C27.435729,0.919693562 27.4084354,0.891791696 27.3811417,0.86388983 C27.3675602,0.850005648 27.3538481,0.835987964 27.3402665,0.822103782 C27.3265544,0.794201916 27.2993914,0.780317734 27.2856792,0.76630005 C27.2720977,0.752415868 27.2583856,0.738398184 27.244804,0.724514002 C27.2312225,0.71062982 27.2175104,0.696612136 27.2039289,0.682727954 L27.1903473,0.668843772 C27.1494721,0.640941906 27.1221785,0.599155858 27.0811727,0.571253992 C27.0675912,0.55736981 27.0402975,0.543352126 27.0265854,0.529467944 C27.0128733,0.515583762 26.9857102,0.501566078 26.9719981,0.487681896 C26.9311229,0.45978003 26.9038292,0.431878164 26.8628234,0.403976298 C26.8219483,0.376074432 26.7946546,0.36219025 26.7536488,0.334288384 C26.712643,0.306386518 26.68548,0.292502336 26.6444742,0.26460047 C26.6308927,0.250716288 26.6171805,0.250716288 26.603599,0.236698604 C26.5763053,0.222814422 26.5490117,0.208796738 26.521718,0.194912556 L26.5081365,0.194912556 C26.5081365,0.194912556 26.5081365,0.194912556 26.4944244,0.194912556 L26.4808428,0.194912556 C26.4672613,0.181028374 26.4535492,0.181028374 26.4399677,0.181028374 C26.4263861,0.167144192 26.3990925,0.167144192 26.3853803,0.153126508 C26.3580867,0.139242326 26.3445051,0.139242326 26.3172115,0.125224642 C26.2899178,0.11134046 26.2763363,0.11134046 26.2490426,0.0973227764 C26.2354611,0.0973227764 26.221749,0.0834385943 26.221749,0.0834385943 C26.1944553,0.0695544122 26.1535801,0.0695544122 26.1262865,0.0555367284 C26.0989928,0.0555367284 26.0854113,0.0416525463 26.0581176,0.0416525463 C26.030824,0.0277683642 26.0035303,0.0277683642 25.9762367,0.0277683642 C25.9626551,0.0277683642 25.9626551,0.0277683642 25.948943,0.0277683642 C25.9216494,0.0277683642 25.8807742,0.0138841821 25.8534805,0.0138841821 C25.8261869,0.0138841821 25.8126053,0.0138841821 25.7853117,0 C25.7715995,0 25.758018,0 25.7444365,0 C25.7171428,0 25.6898492,0 25.6625555,0 C25.6216803,0 25.5806745,0 25.5397994,0 L24.6938266,0 C24.6119456,0 24.5300647,0 24.4618958,0.0138841821 C24.4346021,0.0138841821 24.4073085,0.0138841821 24.3800148,0.0277683642 C24.3527212,0.0416525463 24.3254275,0.0416525463 24.2981339,0.0416525463 C24.2981339,0.0416525463 24.2844217,0.0416525463 24.2708402,0.0416525463 L24.2572587,0.0416525463 C24.2436771,0.0416525463 24.229965,0.0416525463 24.2163835,0.0555367284 C24.202802,0.0555367284 24.1890898,0.0555367284 24.1755083,0.0694209105 C24.1617962,0.0694209105 24.1346331,0.0833050926 24.120921,0.0833050926 C24.0936273,0.0833050926 24.0800458,0.0971892747 24.0527521,0.0971892747 C24.0391706,0.0971892747 24.0254585,0.111073457 24.011877,0.111073457 C23.9845833,0.111073457 23.9710018,0.124957639 23.9437081,0.124957639 C23.9164144,0.138841821 23.9028329,0.138841821 23.8755393,0.152859505 C23.8346641,0.166743687 23.7936583,0.180761371 23.7527831,0.208663237 C23.7254894,0.222547419 23.6981958,0.236565103 23.6709021,0.250449285 C23.6436085,0.264333467 23.6163148,0.278351151 23.5890212,0.292235333 C23.5617275,0.306119515 23.5208523,0.334021381 23.4935587,0.348039065 C23.4526835,0.375940931 23.3980962,0.403842797 23.3570904,0.431744662 C23.3297967,0.445628845 23.3025031,0.473530711 23.2752094,0.501432576 C23.2479158,0.515316759 23.2206221,0.543218625 23.1933284,0.57112049 C23.1660348,0.599022356 23.1387411,0.612906539 23.1114475,0.640808404 C23.1114475,0.654692587 23.0977353,0.654692587 23.0841538,0.66871027 C23.0568602,0.696612136 23.0295665,0.724514002 23.0022728,0.752415868 C22.9749792,0.780317734 22.9476855,0.822103782 22.9203919,0.850005648 C22.8930982,0.891791696 22.8658046,0.919693562 22.8385109,0.961613112 C22.7976357,1.01741684 22.7566299,1.07322058 22.7157547,1.12902431 C22.7021732,1.15692617 22.6884611,1.18482804 22.6748796,1.21272991 C22.6611674,1.24063177 22.6475859,1.26853364 22.6340044,1.2964355 C22.6204228,1.32433737 22.6067107,1.33822155 22.6067107,1.36612342 C22.6067107,1.36612342 22.6067107,1.3800076 22.5931292,1.3800076 C22.5795476,1.40790947 22.5658355,1.42179365 22.5658355,1.44969551 C22.5385419,1.50549925 22.5249603,1.56130298 22.4976667,1.61710671 C22.4976667,1.63099089 22.4839545,1.64500857 22.4839545,1.65889276 C22.470373,1.68679462 22.470373,1.71469649 22.4566609,1.72858067 C22.4566609,1.75648254 22.4430794,1.77036672 22.4430794,1.79826858 C22.4430794,1.82617045 22.4293672,1.84005463 22.4293672,1.8679565 C22.4157857,1.92376023 22.4020736,1.97956396 22.4020736,2.04925188 C22.4020736,2.07715374 22.4020736,2.10505561 22.388492,2.13295747 C22.388492,2.13295747 22.388492,2.14684166 22.388492,2.16085934 C22.388492,2.18876121 22.388492,2.21666307 22.388492,2.23054725 C22.388492,2.25844912 22.388492,2.28635099 22.388492,2.32813703 L22.3611984,3.69519496 L22.2520238,8.43811167 C22.1701428,12.3021863 22.3339047,16.2080471 22.7295975,20.0581041 L22.8114784,20.8392228 C20.9966462,21.6622611 19.7139749,23.4896331 19.6729691,25.6378097 L18.772409,25.9865163 C15.2519191,27.3674584 11.7723044,29.013535 8.44273946,30.8549247 L4.36018304,33.1141748 L3.1866864,33.7559177 C2.9956308,33.8675252 2.81828733,33.9930168 2.66810692,34.1465438 C2.62723173,34.1744457 2.59993808,34.2162318 2.57264442,34.2581513 C2.57264442,34.2581513 2.57264442,34.2581513 2.57264442,34.272169 C2.54535076,34.3000709 2.51805711,34.3418569 2.49076345,34.3697588 C2.47718192,34.3837765 2.4634698,34.3976606 2.44988826,34.4255625 C2.42259461,34.4534644 2.39530095,34.4952504 2.38171942,34.5231523 C2.36813788,34.5510542 2.34084423,34.5928402 2.3271321,34.6207421 C2.31355057,34.6346262 2.29983845,34.6625281 2.28625691,34.69043 C2.27267538,34.7183318 2.25896326,34.7462337 2.24538173,34.7741356 C2.23180019,34.8020374 2.21808807,34.8159216 2.21808807,34.8438235 C2.20450654,34.8717254 2.20450654,34.8856095 2.19079441,34.9135114 C2.17721288,34.9552975 2.14991922,34.997217 2.1362071,35.0390031 C2.12262557,35.0669049 2.10891344,35.108691 2.10891344,35.1365928 C2.08161979,35.2062807 2.06803825,35.2620845 2.05432613,35.3319059 C2.0407446,35.3598078 2.0407446,35.4015938 2.0407446,35.4294957 C2.0407446,35.4573975 2.02716306,35.4852994 2.02716306,35.5132013 C2.02716306,35.5132013 2.02716306,35.5132013 2.02716306,35.527219 C2.02716306,35.5551208 2.02716306,35.5830227 2.01358153,35.6109246 C2.01358153,35.6527106 2,35.7085143 2,35.7504339 C2,35.8201218 2,35.9038274 2,35.9736488 C2,36.0154349 2,36.0573544 2,36.0991405 C2,36.1130246 2,36.1270423 2,36.1549442 C2,36.1688284 2,36.1967302 2,36.2107479 C2,36.2386498 2.01358153,36.2804358 2.01358153,36.3083377 C2.02716306,36.3501237 2.02716306,36.3920433 2.04087519,36.447847 C2.05445672,36.4896331 2.06816885,36.5315526 2.08175038,36.5873564 C2.09533191,36.6291424 2.10904403,36.671062 2.12262557,36.7268657 C2.14991922,36.8105713 2.19079441,36.9081611 2.23180019,36.9918667 L2.61391139,37.7591012 C2.65478657,37.8428068 2.70937389,37.9265124 2.7639612,38.010218 C2.77754273,38.0381199 2.80483639,38.0660218 2.81854851,38.0799059 C2.84584217,38.121692 2.87313583,38.1495938 2.90042948,38.1915134 C2.92772314,38.2332994 2.9550168,38.2612013 2.98231045,38.2891032 L2.99589199,38.3029874 C3.02318564,38.3308892 3.03676717,38.3587911 3.06406083,38.3726753 C3.09135449,38.3865595 3.10493602,38.4144613 3.13222968,38.428479 C3.13222968,38.4423632 3.14581121,38.4423632 3.14581121,38.4423632 C3.15939274,38.4562474 3.1866864,38.4702651 3.20039852,38.4841492 C3.24127371,38.5120511 3.26856737,38.539953 3.30957315,38.5678548 C3.32315468,38.581739 3.35044834,38.5957567 3.36416046,38.6096409 C3.36416046,38.6096409 3.36416046,38.6096409 3.37774199,38.6096409 C3.39132353,38.6235251 3.41861718,38.6375427 3.43232931,38.6514269 C3.43232931,38.6514269 3.43232931,38.6514269 3.44591084,38.6514269 C3.4732045,38.6653111 3.50049815,38.6793288 3.52779181,38.7072307 C3.52779181,38.7072307 3.52779181,38.7072307 3.54137334,38.7072307 C3.55495487,38.7211148 3.58224853,38.7351325 3.59596066,38.7490167 L3.60954219,38.7490167 C3.63683584,38.7629009 3.6641295,38.7769186 3.69142316,38.7908028 C3.71871681,38.8046869 3.759592,38.8187046 3.78688566,38.8325888 C3.86876663,38.8743749 3.9506476,38.9022767 4.03252857,38.9162944 C4.07340376,38.9301786 4.11440954,38.9441963 4.16899685,38.9441963 C4.20987204,38.9580805 4.25087782,38.9580805 4.30546513,38.9720981 C4.36005245,38.9861158 4.42822129,38.9861158 4.48280861,39 C4.51010226,39 4.5236838,39 4.55097745,39 C4.59185264,39 4.64643995,39 4.68744573,39 C4.81020189,39 4.91937652,38.9861158 5.04226327,38.9720981 C5.06955693,38.9720981 5.08313846,38.958214 5.11043212,38.958214 C5.12401365,38.958214 5.13772577,38.958214 5.1513073,38.9443298 C5.16488884,38.9443298 5.19218249,38.9304456 5.20589462,38.9304456 C5.28777559,38.9165614 5.36965656,38.8886595 5.45153753,38.8607577 C5.49241272,38.8468735 5.5334185,38.8328558 5.57429369,38.8189716 C5.61516887,38.8050874 5.65617466,38.7771856 5.69704984,38.7631679 L6.89784014,38.1633445 L11.0733778,36.0848558 C14.4711116,34.3969931 17.8005459,32.4718979 20.9663489,30.3376054 L21.6076845,29.9051932 C22.5082446,30.6584101 23.6681597,31.10484 24.9235373,31.10484 C26.0834524,31.10484 27.1477744,30.7282315 28.0210409,30.0726044 L28.83972,30.5887222 C32.0601103,32.6114072 35.4441319,34.4387792 38.896453,36.029052 L43.126578,37.9680315 L44.3410804,38.5260688 C44.3819556,38.539953 44.4092492,38.5539707 44.450255,38.5678548 C44.450255,38.5678548 44.4638365,38.5678548 44.4638365,38.581739 C44.4774181,38.5956232 44.5047117,38.5956232 44.5184239,38.6096409 C44.559299,38.6235251 44.6003048,38.6375427 44.64118,38.6514269 C44.6684737,38.6514269 44.6820552,38.6653111 44.7093489,38.6653111 C44.7366425,38.6791953 44.7502241,38.6791953 44.7775177,38.6791953 C44.7910992,38.6791953 44.8048114,38.6791953 44.8183929,38.6930795 C44.8592681,38.7069637 44.9138554,38.7069637 44.9548612,38.7209813 C45.0094485,38.7348655 45.0640358,38.7348655 45.1186231,38.7348655 C45.1459168,38.7348655 45.1594983,38.7348655 45.186792,38.7348655 C45.2140856,38.7348655 45.2549608,38.7348655 45.2822545,38.7348655 C45.3231297,38.7348655 45.3504233,38.7348655 45.3914291,38.7348655 C45.4595979,38.7348655 45.5278974,38.7209813 45.5960662,38.7209813 C45.6369414,38.7209813 45.6642351,38.7070972 45.6915287,38.7070972 C45.7188224,38.693213 45.7596976,38.693213 45.7869912,38.693213 C45.7869912,38.693213 45.7869912,38.693213 45.8005728,38.693213 C45.8551601,38.6793288 45.9097474,38.6653111 45.9643347,38.6514269 C46.0052099,38.6375427 46.0462157,38.6235251 46.0735093,38.6096409 C46.1143845,38.5957567 46.1553903,38.581739 46.1962655,38.5538371 C46.209847,38.539953 46.2371407,38.539953 46.2508528,38.5259353 C46.2781465,38.5120511 46.291728,38.5120511 46.3054401,38.4980334 C46.3463153,38.4841492 46.3873211,38.4562474 46.4281963,38.4283455 C46.4554899,38.4144613 46.4690715,38.4004436 46.4963651,38.3865595 C46.5372403,38.3586576 46.5782461,38.3307557 46.6191213,38.3028539 C46.6191213,38.3028539 46.6328334,38.3028539 46.6328334,38.2889697 L46.6464149,38.274952 C46.6872901,38.2470501 46.7145838,38.2191483 46.7418774,38.1912464 C46.7827526,38.1633445 46.8237584,38.1215585 46.8510521,38.0936566 L46.8646336,38.0797724 C46.8919272,38.0518706 46.9192209,38.0239687 46.9600961,37.9821827 C46.9600961,37.9821827 46.9600961,37.9821827 46.9600961,37.9682985 C46.9736776,37.9544143 47.0009713,37.9265124 47.0146834,37.9124947 C47.0146834,37.9124947 47.0146834,37.8986106 47.0282649,37.8986106 C47.0418465,37.8707087 47.0691401,37.8568245 47.0828522,37.8428068 C47.0964338,37.8287891 47.0964338,37.8287891 47.0964338,37.814905 L47.1100153,37.8010208 C47.137309,37.7731189 47.1508905,37.745217 47.1781842,37.703431 C47.1917657,37.6895468 47.1917657,37.6895468 47.2054778,37.6755291 C47.2190593,37.6476273 47.246353,37.6058412 47.2600651,37.5779393 C47.2600651,37.5779393 47.2736467,37.5640552 47.2736467,37.5500375 C47.2736467,37.5360198 47.2873588,37.5361533 47.2873588,37.5221356 C47.2873588,37.5081179 47.3009403,37.5082514 47.3009403,37.4942338 C47.328234,37.4524477 47.3418155,37.4105282 47.3691092,37.3687421 L47.7375082,36.5876234 C47.887558,36.2668187 47.9558575,35.9179786 47.9558575,35.5832897 C48.0121425,35.5415036 47.998561,35.4995841 47.998561,35.457798 Z M20.1890673,29.0967066 C17.0778517,31.1890796 13.8030047,33.0862729 10.4598582,34.7462337 L6.24344534,36.8386067 L5.0699487,37.4245458 C4.71513117,37.6058412 4.29214479,37.5082514 4.03292034,37.2292328 C3.97833303,37.173429 3.93745784,37.1037411 3.89645206,37.0339197 L3.51434087,36.2666852 C3.47346568,36.1829796 3.44617202,36.0853898 3.4324599,36.0016842 C3.37787259,35.6389599 3.54163453,35.2484673 3.88273994,35.0531542 L5.02894292,34.4114113 L9.13618116,32.1376095 C12.4111588,30.3241217 15.8360556,28.7060805 19.3020888,27.3529067 L19.8615435,27.1296918 C20.0253054,27.7435329 20.2845298,28.3154544 20.6393474,28.8175545 L20.1890673,29.0967066 Z M23.8323134,2.31358534 C23.845895,1.89505735 24.1325436,1.54635078 24.5145242,1.46264518 C24.5826931,1.448761 24.6509925,1.43474332 24.7191614,1.43474332 L25.5651341,1.43474332 C25.6605966,1.43474332 25.7424776,1.4486275 25.8243586,1.47652937 C26.1791761,1.58813683 26.4521127,1.92295922 26.4521127,2.32746953 L26.4794063,3.65274141 L26.588581,8.43744416 C26.6704619,12.2457151 26.5204121,16.0957721 26.1110073,19.8621235 L26.0428384,20.4619469 C25.6880209,20.3782413 25.3060403,20.3364552 24.9239291,20.3364552 C24.6782862,20.3364552 24.4463554,20.3503394 24.2144246,20.392259 L24.1598373,19.8621235 C23.7641446,16.0678702 23.6003826,12.2316974 23.6822636,8.43744416 L23.7914382,3.65274141 L23.8323134,2.31358534 Z M24.9376412,29.6128244 C22.8362908,29.6128244 21.1169211,27.869158 21.1169211,25.7069637 C21.1169211,23.558787 22.8225787,21.8011029 24.9376412,21.8011029 C27.0527037,21.8011029 28.7583614,23.5447693 28.7583614,25.7069637 C28.7583614,27.869158 27.0389916,29.6128244 24.9376412,29.6128244 Z M44.9556447,37.1735625 L43.768436,36.6295429 L39.4974358,34.6765458 C36.099702,33.1141748 32.7702677,31.3147047 29.6044647,29.3199215 L29.0995974,28.9991168 C29.4679964,28.5109009 29.7682267,27.9528636 29.9455701,27.3530402 L30.4368559,27.5343356 C33.9573459,28.7897861 37.4233791,30.2963533 40.7392319,32.0121179 L44.9147695,34.1602945 L46.0746846,34.7601179 C46.4295022,34.9414133 46.6205578,35.3599413 46.5386768,35.7365497 C46.5250953,35.8062376 46.4978016,35.876059 46.470508,35.9457469 L46.1021089,36.7268657 C46.0612337,36.8105713 46.0066464,36.8942769 45.938347,36.9639648 C45.7060244,37.2432505 45.2967501,37.3409737 44.9556447,37.1735625 Z" id="Shape" fill-rule="nonzero"></path>
                <path d="M6,38.1490045 L4.78294391,38.758914 C4.45098342,38.9148869 4.10525742,39 3.75953143,39 C2.9020992,39 2.07219798,38.5176923 1.64348186,37.6808145 L1.25619463,36.9006787 C0.675263775,35.7376018 1.11787776,34.2908145 2.22428036,33.6666516 L3.41367308,33 L4.07759405,34.3333032 L5.32231352,36.8155656 L6,38.1490045 Z" id="Path"></path>
            </g>
        </g>
    </g>
</svg>