<svg xmlns="http://www.w3.org/2000/svg" width="80" height="80" viewBox="0 0 80 80">
    <g fill="#FF8F34" fill-rule="evenodd">
        <path fill-opacity=".2" d="M10.054 77.023l-.066-.031a17.84 17.84 0 0 1-.056-.028c-8.792-4.24-12.428-14.69-8.12-23.343l9.75-19.585L17.04 23.03l6.584-13.227c3.2-6.427 9.873-10.065 16.704-9.79 6.6-.024 12.95 3.584 16.048 9.805l21.812 43.816c4.308 8.653.672 19.104-8.12 23.344l-.056.027-.066.031c-8.738 4.176-52.07 3.723-59.892-.014z"/>
        <path d="M47.2 29c1.987 0 3.6 1.613 3.6 3.6v7.2h-3.6v-5.4H25.6v25.2H40V65H25.6a3.601 3.601 0 0 1-3.6-3.6V32.6c0-1.987 1.613-3.6 3.6-3.6zm7.2 14.4c1.987 0 3.6 1.613 3.6 3.6v14.4c0 1.987-1.613 3.6-3.6 3.6h-7.2a3.601 3.601 0 0 1-3.6-3.6V47c0-1.987 1.613-3.6 3.6-3.6zm0 3.6h-7.2v12.6h7.2V47z"/>
    </g>
</svg>
