<svg xmlns="http://www.w3.org/2000/svg" width="80" height="80" viewBox="0 0 80 80">
    <g fill="#FF8F34" fill-rule="evenodd">
        <path fill-opacity=".2" d="M10.054 77.023l-.066-.031a17.84 17.84 0 0 1-.056-.028c-8.792-4.24-12.428-14.69-8.12-23.343l9.75-19.585L17.04 23.03l6.584-13.227c3.2-6.427 9.873-10.065 16.704-9.79 6.6-.024 12.95 3.584 16.048 9.805l21.812 43.816c4.308 8.653.672 19.104-8.12 23.344l-.056.027-.066.031c-8.738 4.176-52.07 3.723-59.892-.014z"/>
        <path d="M59 65.077A1.924 1.924 0 0 1 57.076 67H22.924a1.924 1.924 0 0 1 0-3.848h2.22V50.763l.193.024h.002a7.611 7.611 0 0 0 5.354-1.465 7.61 7.61 0 0 0 7.569.883v12.946h12.745v-12.78c.77.235 1.571.354 2.375.352.206 0 .396 0 .617-.023h.002c.292-.023.583-.063.87-.12v12.572h2.22A1.925 1.925 0 0 1 59 65.077zm-12.187-8.551c-.23 0-.455.059-.654.175l-4.355 2.517a1.304 1.304 0 0 0 .297 2.423c.345.085.71.026 1.01-.163l4.354-2.517v-.001a1.305 1.305 0 0 0-.652-2.439v.005zm1.132-4.707a1.31 1.31 0 0 0-1.786-.48L41.8 53.855a1.308 1.308 0 0 0 .296 2.424c.344.085.71.025 1.01-.164l4.355-2.517a1.306 1.306 0 0 0 .486-1.778h-.003zm.875-6.1c.114 0 .22.06.28.16a5.022 5.022 0 0 0 4.272 2.375h.396c3.258-.25 5.197-3.78 3.859-6.757l-4.877-8.518A1.944 1.944 0 0 0 51.083 32H28.45c-.698 0-1.34.374-1.687.979l-4.868 8.505c-1.311 2.921.521 6.432 3.708 6.745a5.017 5.017 0 0 0 4.813-2.347.326.326 0 0 1 .559 0 5.025 5.025 0 0 0 4.238 2.382 5.024 5.024 0 0 0 4.269-2.327.326.326 0 0 1 .277-.156c.113 0 .218.06.276.156a5.017 5.017 0 0 0 8.506-.05.33.33 0 0 1 .278-.168z"/>
    </g>
</svg>
