<svg xmlns="http://www.w3.org/2000/svg" width="80" height="80" viewBox="0 0 80 80">
    <g fill="#FF8F34" fill-rule="evenodd">
        <path fill-opacity=".2" d="M10.054 77.023l-.066-.031a17.84 17.84 0 0 1-.056-.028c-8.792-4.24-12.428-14.69-8.12-23.343l9.75-19.585L17.04 23.03l6.584-13.227c3.2-6.427 9.873-10.065 16.704-9.79 6.6-.024 12.95 3.584 16.048 9.805l21.812 43.816c4.308 8.653.672 19.104-8.12 23.344l-.056.027-.066.031c-8.738 4.176-52.07 3.723-59.892-.014z"/>
        <path d="M56.4 35.04c1.52 0 2.8 1.24 2.76 2.8v26.321c0 1.56-1.241 2.8-2.8 2.8H24c-1.56 0-2.8-1.24-2.8-2.8v-26.32c0-1.52 1.24-2.8 2.8-2.8zm-.759 8.28h-30.92v19.92c0 .121.08.2.2.2H55.48c.12 0 .2-.079.2-.2h-.039V43.32zM34.759 53.48c1.68 0 3.12 1.24 3.32 2.92l.32 2.72c.04.36-.16.68-.52.76a20.98 20.98 0 0 1-8.56 0c-.32-.04-.56-.4-.52-.76l.32-2.72c.2-1.68 1.64-2.92 3.32-2.92zm16.561-5.36c.16 0 .28.12.28.28v9.878c0 .16-.12.28-.28.28h-3.88c-.159 0-.279-.12-.279-.28v-1.6c0-.16.12-.28.28-.28h1.88c.039 0 .08-.039.08-.08V50.36c0-.039-.04-.08-.08-.08h-1.88c-.161 0-.281-.159-.28-.28v-1.6c0-.159.12-.279.28-.279zm-8.44 2.199c0-.32.4-.52.68-.32l3.92 3.04c.2.16.2.481 0 .64l-3.92 3.041c-.28.2-.68.04-.68-.32v-1.64H39.6c-.24 0-.4-.16-.4-.4v-2c0-.2.16-.4.4-.4h3.28zM33.6 46.4a3.12 3.12 0 1 1 0 6.24 3.12 3.12 0 0 1 0-6.24zm-.4-8.48c-.68 0-1.2.52-1.2 1.2 0 .641.52 1.2 1.2 1.2.64 0 1.2-.52 1.2-1.2 0-.64-.52-1.2-1.2-1.2zm-3.68 0c-.64 0-1.2.52-1.2 1.2 0 .641.52 1.2 1.2 1.2.641 0 1.2-.52 1.2-1.2 0-.64-.52-1.2-1.2-1.2zm-3.68 0c-.64 0-1.2.52-1.2 1.2 0 .641.521 1.2 1.2 1.2.641 0 1.2-.52 1.2-1.2 0-.64-.52-1.2-1.2-1.2z"/>
    </g>
</svg>
