<svg xmlns="http://www.w3.org/2000/svg" width="80" height="80" viewBox="0 0 80 80">
    <g fill="#FF8F34" fill-rule="evenodd">
        <path fill-opacity=".2" d="M10.054 77.023l-.066-.031a17.84 17.84 0 0 1-.056-.028c-8.792-4.24-12.428-14.69-8.12-23.343l9.75-19.585L17.04 23.03l6.584-13.227c3.2-6.427 9.873-10.065 16.704-9.79 6.6-.024 12.95 3.584 16.048 9.805l21.812 43.816c4.308 8.653.672 19.104-8.12 23.344l-.056.027-.066.031c-8.738 4.176-52.07 3.723-59.892-.014z"/>
        <path d="M54.4 56.09c.994 0 1.8.815 1.8 1.82v7.272A1.81 1.81 0 0 1 54.4 67H25.6a1.81 1.81 0 0 1-1.8-1.818v-7.273a1.81 1.81 0 0 1 1.8-1.818zm-1.8 3.637h-18v3.637h18v-3.637zM45.4 27C52.348 27 58 32.71 58 39.727c0 7.018-5.652 12.728-12.6 12.728H31c-4.963 0-9-4.079-9-9.091 0-5.013 4.037-9.091 9-9.091 2.507 0 4.82.825 7.515 4.69l1.47-1.048c-1.753-2.515-3.608-3.98-5.347-4.811A12.507 12.507 0 0 1 45.4 27z"/>
    </g>
</svg>
