<svg xmlns="http://www.w3.org/2000/svg" width="80" height="80" viewBox="0 0 80 80">
    <g fill="#FF8F34" fill-rule="evenodd">
        <path fill-opacity=".2" d="M10.054 77.023l-.066-.031a17.84 17.84 0 0 1-.056-.028c-8.792-4.24-12.428-14.69-8.12-23.343l9.75-19.585L17.04 23.03l6.584-13.227c3.2-6.427 9.873-10.065 16.704-9.79 6.6-.024 12.95 3.584 16.048 9.805l21.812 43.816c4.308 8.653.672 19.104-8.12 23.344l-.056.027-.066.031c-8.738 4.176-52.07 3.723-59.892-.014z"/>
        <path d="M58 41.89v19.555C58 63.405 56.385 65 54.4 65H25.6c-1.985 0-3.6-1.594-3.6-3.555V41.891h36zm-18 5.335l-7.2 7.11h5.4v5.332h3.6v-5.332h5.4l-7.2-7.11zM54.4 33c1.985 0 3.6 1.593 3.6 3.555v3.559H22v-3.559C22 34.593 23.615 33 25.6 33zm-27 1.778c-.994 0-1.8.796-1.8 1.777a1.79 1.79 0 0 0 1.8 1.778c.994 0 1.8-.797 1.8-1.778a1.79 1.79 0 0 0-1.8-1.777zm5.4 0c-.994 0-1.8.796-1.8 1.777a1.79 1.79 0 0 0 1.8 1.778c.994 0 1.8-.797 1.8-1.778a1.79 1.79 0 0 0-1.8-1.777z"/>
    </g>
</svg>
