<svg xmlns="http://www.w3.org/2000/svg" width="80" height="80" viewBox="0 0 80 80">
    <g fill="#FF8F34" fill-rule="evenodd">
        <path fill-opacity=".2" d="M10.054 77.023l-.066-.031a17.84 17.84 0 0 1-.056-.028c-8.792-4.24-12.428-14.69-8.12-23.343l9.75-19.585L17.04 23.03l6.584-13.227c3.2-6.427 9.873-10.065 16.704-9.79 6.6-.024 12.95 3.584 16.048 9.805l21.812 43.816c4.308 8.653.672 19.104-8.12 23.344l-.056.027-.066.031c-8.738 4.176-52.07 3.723-59.892-.014z"/>
        <path d="M52.02 49c4.96 0 8.98 4.03 8.98 9s-4.02 9-8.98 9c-4.958 0-8.979-4.03-8.979-9s4.02-9 8.98-9zM40.617 32.42c2.818 2.058 3.345 5.016 3.017 8.218-.305 2.976-1.373 5.737-2.752 8.369-.874 1.669-.857 2.887.164 3.785a10.716 10.716 0 0 0-1.475 5.444c0 1.681.385 3.272 1.072 4.69l-20.57-.001v-.001c-.16-1.808-.072-3.565.454-5.256.328-1.055 1.165-1.738 2.19-2.062 1.46-.46 2.958-.8 4.424-1.242.87-.263 1.751-.548 2.564-.955 1.843-.922 2.148-2.254 1.29-4.158-.951-2.11-1.828-4.267-2.547-6.468-.658-2.011-.683-4.11-.143-6.195.78-3.016 3.001-5.044 6.072-5.467 2.225-.308 4.35-.08 6.24 1.3zm14.986 21.15l-4.69 4.89-2.223-2.317-2.131 2.222 4.354 4.54 6.823-7.113-2.133-2.223z"/>
    </g>
</svg>
